<?xml version="1.0" encoding="UTF-8"?>
<!DOCTYPE svg PUBLIC "-//W3C//DTD SVG 1.1//EN" "http://www.w3.org/Graphics/SVG/1.1/DTD/svg11.dtd">
<!-- Creator: CorelDRAW -->
<svg xmlns="http://www.w3.org/2000/svg" xml:space="preserve" width="0.53239in" height="0.625244in" style="shape-rendering:geometricPrecision; text-rendering:geometricPrecision; image-rendering:optimizeQuality; fill-rule:evenodd; clip-rule:evenodd"
viewBox="0 0 0.117503 0.137996"
 xmlns:xlink="http://www.w3.org/1999/xlink">
 <defs>
  <style type="text/css">
   <![CDATA[
    .fil0 {fill:#008AC8}
   ]]>
  </style>
 </defs>
 <g id="Layer_x0020_1">
  <metadata id="CorelCorpID_0Corel-Layer"/>
  <g id="_91393984">
   <path id="_94002352" class="fil0" d="M0.101886 0.0887229l-0.0201896 0.0119443c-0.00736766,0.00498766 -0.00623631,0.00423256 -0.0147301,0.000294567l-0.0372571 -0.0164514c-0.00541517,-0.00249296 -0.00420996,-0.00105314 -0.00774303,-0.0137395l-0.00494073 -0.0165418c-0.00078725,-0.00297 -0.00382416,-0.0148265 -0.00570713,-0.0162064 -0.000914983,0.00392582 -0.00275538,0.0078838 -0.00409092,0.011807 -0.00214626,0.00630756 -0.00833738,0.0200393 -0.00705397,0.0242379 0.00221751,0.00725209 0.00447151,0.0173786 0.00705397,0.0251911l0.00449063 0.0157033c0.000892391,0.00194901 0.00604428,0.00348006 0.00813753,0.00432293l0.0389037 0.0173812c0.00258593,0.00109224 0.00350439,0.0020611 0.00576448,0.000557853 0.00569583,-0.00378853 0.00938618,-0.00570105 0.0150933,-0.00898995l0.0192572 -0.0112492c0.00251642,-0.00171353 0.00192381,-0.00212801 0.00371554,-0.00659518 0.000831566,-0.00207066 0.00164315,-0.00397275 0.00233047,-0.00583399 0.00413697,-0.0112544 0.00306819,-0.0110693 -0.0030343,-0.0158328z"/>
   <path id="_94002304" class="fil0" d="M0.0156173 0.0492727l0.0201896 -0.0119434c0.00736679,-0.00498853 0.00983628,-0.00868148 0.0183301,-0.00474262l0.0342923 0.0128506c0.00541517,0.00249383 0.00357478,0.00910204 0.00710785,0.0217875l0.00494073 0.0165427c0.00078725,0.00297 0.00382416,0.0148257 0.00570713,0.0162055 0.000914114,-0.00392496 0.00275538,-0.0078838 0.00409092,-0.011807 0.00214626,-0.00630669 0.00833738,-0.0200393 0.0070531,-0.0242371 -0.00221751,-0.00725296 -0.00447151,-0.0173795 -0.0070531,-0.0251911l-0.00449063 -0.0157042c-0.000892391,-0.00194901 -0.00604428,-0.00348006 -0.0081384,-0.00432206l-0.0389029 -0.0173821c-0.00258593,-0.00109138 -0.00350439,-0.0020611 -0.00576535,-0.000556984 -0.00569497,0.00378766 -0.00938618,0.00570018 -0.0150933,0.00898908l-0.0192564 0.0112492c-0.00251642,0.00171353 -0.00192381,0.00212801 -0.00371641,0.00659518 -0.000830697,0.00207066 -0.00164228,0.00397362 -0.0023296,0.00583399 -0.00413784,0.0112552 -0.00306819,0.0110693 0.0030343,0.0158328z"/>
   <path id="_94002256" class="fil0" d="M0.0502398 0.0737461c0.00363213,0 0.00791247,0.00166574 0.0109615,0.00321852 0.00304734,0.00155104 0.00567672,0.00375204 0.0080515,0.00612682l0.00461836 0.00483386c0.00319592,-0.000744673 0.00261895,-0.00293611 0.000292829,-0.00759705 -0.00366688,-0.0073468 -0.0120764,-0.0137456 -0.0200566,-0.0156051l0.00847467 0.00183692c0.0127046,0.00544471 0.0154513,0.015281 0.0173047,0.0166391 0.000290223,-0.0130114 -0.00729553,-0.0228859 -0.0194962,-0.0269073l-0.00499461 -0.00188036c0.00271193,6.08251e-005 0.00786034,0.00153366 0.0100135,0.00244691 0.0136596,0.00579402 0.0170423,0.0182545 0.0192033,0.0190365 0,-0.00631277 -0.00130948,-0.0102421 -0.004044,-0.0140019 -0.00293177,-0.00403096 -0.00519446,-0.00590264 -0.00951652,-0.00852941 -0.0139064,-0.00845556 -0.0337414,-0.0044411 -0.0328516,0.0130852 0.000718605,0.0141618 0.0184213,0.0234142 0.0313744,0.0223358 -0.000972332,-0.00417086 -0.00853376,-0.0101882 -0.013246,-0.0125343 -0.0040944,-0.00203851 -0.00269455,-0.0010992 -0.00550206,-0.00223228l-0.000587396 -0.000271975z"/>
  </g>
 </g>
</svg>
