<?xml version="1.0" encoding="UTF-8"?>
<!DOCTYPE svg PUBLIC "-//W3C//DTD SVG 1.1//EN" "http://www.w3.org/Graphics/SVG/1.1/DTD/svg11.dtd">
<!-- Creator: CorelDRAW -->
<svg xmlns="http://www.w3.org/2000/svg" xml:space="preserve" width="2.696in" height="0.875in" style="shape-rendering:geometricPrecision; text-rendering:geometricPrecision; image-rendering:optimizeQuality; fill-rule:evenodd; clip-rule:evenodd"
viewBox="0 0 2.35044 0.762845"
 xmlns:xlink="http://www.w3.org/1999/xlink">
 <defs>
  <style type="text/css">
   <![CDATA[
    .str0 {stroke:#C2C1C1;stroke-width:0.00686475;stroke-dasharray:0.034324 0.034324}
    .fil5 {fill:none}
    .fil1 {fill:#008AC8}
    .fil0 {fill:#A6A8AA}
    .fil4 {fill:#4D4948;fill-rule:nonzero}
    .fil2 {fill:#008AC8;fill-rule:nonzero}
    .fil3 {fill:#A6A8AA;fill-rule:nonzero}
   ]]>
  </style>
 </defs>
 <g id="Layer_x0020_1">
  <metadata id="CorelCorpID_0Corel-Layer"/>
  <g id="_106818512">
   <path id="_106818728" class="fil0" d="M0.40246 0.568209l-0.0797478 0.0471814c-0.0291031,0.0197018 -0.0246376,0.0167225 -0.0581891,0.00116358l-0.147167 -0.0649852c-0.0213906,-0.00984748 -0.0166333,-0.00416004 -0.0305893,-0.0542727l-0.0195165 -0.0653421c-0.0031063,-0.0117319 -0.0151024,-0.0585666 -0.0225438,-0.0640172 -0.00361086,0.0155075 -0.0108806,0.0311419 -0.0161562,0.0466391 -0.0084814,0.0249156 -0.0329336,0.0791574 -0.027864,0.0957427 0.00875942,0.0286466 0.017663,0.0686475 0.027864,0.099508l0.0177385 0.0620299c0.00352505,0.00769882 0.0238756,0.0137467 0.0321442,0.0170761l0.153674 0.0686612c0.0102147,0.00431106 0.0138428,0.00813816 0.0227704,0.00220015 0.0224958,-0.0149652 0.0370765,-0.0225198 0.0596204,-0.0355079l0.0760683 -0.044439c0.00993673,-0.00676864 0.00759585,-0.00840589 0.0146768,-0.0260517 0.00328135,-0.00817935 0.00649062,-0.0156928 0.00920563,-0.023045 0.0163415,-0.0444561 0.0121163,-0.043725 -0.0119893,-0.0625413z"/>
   <path id="_106818656" class="fil0" d="M0.0616901 0.412376l0.0797512 -0.047178c0.0290997,-0.0197053 0.0388545,-0.0342929 0.0724059,-0.0187339l0.135455 0.0507614c0.0213906,0.00985092 0.0141242,0.0359541 0.0280803,0.0860634l0.0195165 0.0653456c0.00310973,0.0117319 0.0151024,0.0585632 0.0225438,0.0640138 0.00361086,-0.015504 0.0108806,-0.0311419 0.0161562,-0.0466357 0.0084814,-0.0249156 0.0329336,-0.0791609 0.027864,-0.0957427 -0.00875942,-0.02865 -0.017663,-0.0686509 -0.027864,-0.099508l-0.0177351 -0.0620333c-0.00352848,-0.00769882 -0.0238756,-0.0137467 -0.0321476,-0.0170726l-0.153674 -0.0686612c-0.0102147,-0.00431106 -0.0138428,-0.00814159 -0.0227704,-0.00220015 -0.0224958,0.0149617 -0.0370765,0.0225164 -0.0596204,0.0355079l-0.0760649 0.0444355c-0.00994016,0.00676864 -0.00759928,0.00840589 -0.0146803,0.0260517 -0.00328135,0.00817935 -0.00649062,0.0156963 -0.00920563,0.023045 -0.0163415,0.0444596 -0.0121163,0.043725 0.0119893,0.0625413z"/>
   <path id="_106818248" class="fil1" d="M0.198453 0.509049c0.0143439,0 0.0312518,0.00658329 0.043296,0.0127135 0.0120408,0.00612679 0.0224237,0.014821 0.0318078,0.0242017l0.0182431 0.0190943c0.0126243,-0.00294155 0.0103452,-0.011598 0.00115671,-0.0300093 -0.0144846,-0.0290173 -0.0477031,-0.0542967 -0.0792295,-0.061642l0.0334794 0.00725604c0.0501813,0.0215073 0.0610345,0.0603617 0.0683557,0.0657265 0.00114641,-0.0513964 -0.0288182,-0.0904019 -0.0770122,-0.106287l-0.0197293 -0.00742766c0.0107124,0.000240266 0.0310493,0.00605814 0.0395547,0.00966557 0.0539569,0.0228871 0.0673192,0.0721073 0.0758555,0.0751965 0,-0.0249362 -0.00517259,-0.0404574 -0.0159743,-0.0553093 -0.0115843,-0.0159228 -0.0205222,-0.0233161 -0.0375914,-0.0336922 -0.0549352,-0.0334004 -0.133286,-0.0175429 -0.129771,0.0516881 0.00283857,0.0559408 0.0727663,0.0924888 0.123933,0.0882292 -0.0038374,-0.0164754 -0.0337059,-0.0402446 -0.0523197,-0.049512 -0.0161734,-0.00805235 -0.0106472,-0.00434195 -0.0217338,-0.00881777l-0.00232029 -0.00107433z"/>
   <g>
    <path id="_106812512" class="fil1" d="M1.15251 0.219943c0.0145327,0.0373099 0.0387893,0.0776129 0.0576261,0.113677 0.00249534,0.004771 0.00239923,0.00338089 0.00370696,0.00898596 0.0402171,-0.021823 0.0684381,-0.0383842 0.0795144,-0.0452627l0.0283411 -0.0139526c-0.0186756,-0.042304 -0.0343478,-0.077908 -0.0613297,-0.126891 -0.0222864,0.0103417 -0.0908618,0.0505005 -0.107859,0.063444z"/>
    <path id="_106818056" class="fil1" d="M1.07215 0.0613331l0.025379 0.0528689c0.0124183,-0.00656957 0.100624,-0.0579179 0.105741,-0.0655584 -0.00661762,-0.0171378 -0.0152981,-0.0340354 -0.0232612,-0.0486436 -0.0107742,0.00250907 -0.0433303,0.0230244 -0.0549043,0.02969 -0.00915414,0.00527556 -0.0423624,0.0255506 -0.0529547,0.0316431z"/>
    <path id="_106817864" class="fil0" d="M0.98121 0.198796c0,0.0201892 0.0605059,0.111525 0.0655618,0.133234l0.0338364 0c-0.00737617,-0.0110179 -0.0886102,-0.141119 -0.095166,-0.145924 -0.00102971,0.00214523 -0.00423212,0.00989554 -0.00423212,0.0126895z"/>
    <path id="_106817960" class="fil0" d="M1.02139 0.188221c0,0.011066 0.0150784,0.0347906 0.022537,0.0493713 0.00887955,0.017361 0.0412125,0.0739745 0.0430248,0.0817489l0.031722 0 -0.0339599 -0.0548631c-0.00774001,-0.0128748 -0.0516847,-0.0839833 -0.0590918,-0.0889466 -0.00102971,0.00214523 -0.00423212,0.00989554 -0.00423212,0.0126895z"/>
    <path id="_106817048" class="fil0" d="M1.07426 0.14381c0,0.00998135 0.0329027,0.0716062 0.0397744,0.0828884 0.0360056,0.0591295 0.0307438,0.0617553 0.0617381,0.0609212 -0.0278983,-0.045019 -0.0569225,-0.0904191 -0.0839181,-0.136025 -0.00448268,-0.00757182 -0.00760271,-0.014162 -0.0112513,-0.0204741 -0.00588652,0 -0.00634303,0.00699518 -0.00634303,0.0126895z"/>
    <path id="_106817768" class="fil0" d="M1.051 0.169189c0,0.0147215 0.0595037,0.10996 0.063444,0.126891l0.0317254 0 -0.0444115 -0.0697905c-0.00854661,-0.0127856 -0.0357276,-0.0565758 -0.0465258,-0.0697905 -0.00102971,0.00214523 -0.00423212,0.00989554 -0.00423212,0.0126895z"/>
    <path id="_106817384" class="fil0" d="M0.943145 0.222061c0,0.00861526 0.00952484,0.0261719 0.0135819,0.0329439l0.0498621 0.0939441 0.0296077 0 -0.0824456 -0.131151c-0.00126998,-0.00188094 -0.000861526,-0.001421 -0.00258801,-0.00375502 -0.00179513,-0.00242669 -0.0022585,-0.00291065 -0.00378934,-0.00467146 -0.00135236,0.00580758 -0.00422869,0.00859467 -0.00422869,0.0126895z"/>
    <path id="_106817144" class="fil0" d="M0.962177 0.354019c0.00792535,0.000902715 0.0230587,0.00376188 0.0290791,0.00127684l-0.0566822 -0.0942256c-0.00517259,-0.007867 -0.0145292,-0.0274315 -0.0231514,-0.0305516 -0.00546091,0.0234294 0.00280768,0.0297964 0.0204192,0.0641751 0.00667597,0.0130293 0.0284407,0.0508472 0.0303353,0.0593252z"/>
    <path id="_106817648" class="fil0" d="M0.921243 0.353181c0.00489113,0.00240266 0.0183701,0.00218986 0.0229145,0 -0.00134206,-0.00610619 -0.00270128,-0.00684416 -0.00665194,-0.0133725l-0.0223516 -0.0375742c-0.00655927,-0.0111072 -0.0270505,-0.0477581 -0.0375708,-0.0505692 -0.000363832,0.0163003 -0.00532705,0.0122364 0.00275276,0.0289692l0.0261204 0.0479057c0.00305481,0.00601695 0.010606,0.0200554 0.0147867,0.024641z"/>
    <path id="_106819880" class="fil0" d="M0.875468 0.353916l0.0226605 -0.000734528c-0.00979257,-0.0196229 -0.0274727,-0.0471196 -0.0374438,-0.063468 -0.00376188,-0.00565655 -0.00814846,-0.0165955 -0.0148244,-0.0190119 -0.00673089,0.0288972 0.0153256,0.0506653 0.0296077,0.0832145z"/>
    <path id="_106817744" class="fil0" d="M0.817853 0.327802c0.0054918,0.0100466 0.0122982,0.0203677 0.017433,0.0293399l0.0183014 -0.00396096c-0.00350445,-0.0108463 -0.0294601,-0.0524741 -0.0388682,-0.0592153 0.00491859,0.0104653 0.00372413,0.0218574 0.00313376,0.0338364z"/>
   </g>
   <path id="_106818200" class="fil2" d="M0.784713 0.585083l-0.102268 0 -0.0660011 -0.057506c-0.0113268,-0.00979943 -0.0199867,-0.0174227 -0.0259762,-0.0228699 -0.00598949,-0.00544375 -0.010836,-0.0100191 -0.0145395,-0.0137226 0.00021624,0.00500783 0.000435912,0.0101839 0.000652151,0.0155178 0.000219672,0.00533734 0.000326076,0.0106198 0.000326076,0.0158473l0 0.0627335 -0.0679576 0 0 -0.218584 0.0679576 0 0 0.0506413c0,0.00675491 -0.000106404,0.0133966 -0.000326076,0.0199318 -0.00021624,0.00653524 -0.000542315,0.0126346 -0.000978227,0.018298 0.00435568,-0.0039232 0.00963811,-0.00876629 0.0158438,-0.0145395 0.00620917,-0.00577325 0.0143233,-0.0127993 0.0243424,-0.0210748l0.063063 -0.0532567 0.0980218 0 -0.083647 0.0627301c-0.00718739,0.00544718 -0.0135579,0.0102388 -0.0191115,0.0143782 -0.00555701,0.00413944 -0.0105134,0.00773314 -0.014869,0.0107811 -0.00435568,0.00305138 -0.00833037,0.00577325 -0.0119241,0.00816905 -0.00359713,0.0023958 -0.00713591,0.00468176 -0.0106198,0.00686132 0.00631557,0.00435568 0.0139389,0.00980286 0.0228699,0.0163381 0.00893104,0.00653524 0.0204775,0.0155727 0.0346361,0.0271192l0.0905049 0.0722069zm0.276093 -0.0561983l-0.0434573 0.0561983 -0.210418 0 0 -0.218584 0.253223 0 -0.0437834 0.0568504 -0.141479 0 0 0.0261375 0.17317 0 -0.0388819 0.049663 -0.134288 0 0 0.0297347 0.185915 0zm0.225775 -0.0751484c0.0267931,0 0.0471574,0.00495635 0.0610997,0.0148656 0.0139389,0.0099127 0.02091,0.0248881 0.02091,0.0449264 0,0.0111106 -0.00174021,0.0211297 -0.00522751,0.0300607 -0.00348386,0.00893104 -0.00904088,0.0164445 -0.0166642,0.0225438 -0.0076233,0.00609933 -0.0173712,0.0107845 -0.0292438,0.0140487 -0.0118692,0.00326762 -0.0260826,0.00490143 -0.042637,0.00490143l-0.203557 0 0.0434573 -0.0561983 0.165327 0c0.00805922,0 0.0139389,-0.00125282 0.0176424,-0.00375845 0.00370353,-0.0025022 0.00555358,-0.00658673 0.00555358,-0.0122501 0,-0.00566342 -0.00185005,-0.00969303 -0.00555358,-0.0120888 -0.00370353,-0.0023958 -0.00958319,-0.00359713 -0.0176424,-0.00359713l-0.118932 0c-0.0141585,0 -0.0263572,-0.00152397 -0.0365925,-0.00457192 -0.0102388,-0.00305138 -0.0187339,-0.00729723 -0.0254888,-0.0127444 -0.00675148,-0.00544375 -0.0117627,-0.0120339 -0.0150269,-0.019767 -0.00327105,-0.00773314 -0.00490143,-0.0162832 -0.00490143,-0.0256501 0,-0.0102353 0.00179513,-0.0195474 0.00538883,-0.0279327 0.0035937,-0.00838872 0.00915071,-0.0155212 0.0166642,-0.0214009 0.00751347,-0.00588309 0.0172099,-0.0104584 0.0290791,-0.0137261 0.0118726,-0.00326419 0.026086,-0.004898 0.0426404,-0.004898l0.189834 0 -0.0434573 0.0568504 -0.151605 0c-0.00784298,0 -0.0136677,0.00108806 -0.0174811,0.00326762 -0.00381337,0.00217956 -0.00571834,0.00609933 -0.00571834,0.0117627 0,0.00566342 0.00190497,0.00963811 0.00571834,0.0119241 0.00381337,0.00228939 0.00963811,0.00343237 0.0174811,0.00343237l0.118932 0zm0.377379 0.131347l-0.0673054 0 0 -0.0842957 -0.130042 0 0 0.0842957 -0.067961 0 0 -0.218584 0.067961 0 0 0.0774344 0.130042 0 0 -0.0774344 0.0673054 0 0 0.218584zm0.133962 0l0.0408418 -0.0561983 0.054894 0c0.00653524,0 0.0133416,0 0.0204192,0 0.00708099,0 0.0132352,0.000219672 0.0184627,0.000655584 -0.00305138,-0.0039232 -0.00659016,-0.00887612 -0.0106198,-0.0148656 -0.00402961,-0.00599293 -0.00789446,-0.0116014 -0.011598,-0.0168289l-0.039208 -0.0578321 -0.102597 0.145069 -0.0800498 0 0.140171 -0.197674c0.00457192,-0.00631557 0.0103452,-0.0119824 0.0173163,-0.0169903 0.00696772,-0.00501127 0.0157924,-0.0075169 0.0264636,-0.0075169 0.0102388,0 0.0187888,0.00234088 0.0256501,0.00702607 0.00686132,0.00468519 0.0126861,0.0105099 0.0174811,0.0174811l0.136574 0.197674 -0.254202 0zm0.271844 -0.218584l0.0983478 0.145069 0.102597 -0.145069 0.0797238 0 -0.139845 0.197674c-0.0047916,0.00631557 -0.0106713,0.011979 -0.0176424,0.0169903 -0.00697115,0.00501127 -0.0156825,0.0075169 -0.0261375,0.0075169 -0.0102388,0 -0.0187888,-0.00234431 -0.0256501,-0.00702607 -0.00686132,-0.00468519 -0.0126895,-0.0105099 -0.0174811,-0.0174811l-0.1369 -0.197674 0.082988 0z"/>
   <path id="_106817912" class="fil3" d="M0.529996 0.681924l0.00515886 0c0.00643227,0 0.0109699,-0.000871823 0.0136437,-0.00263606 0.00265323,-0.00176424 0.00399185,-0.00472981 0.00399185,-0.00887612 0,-0.00455476 -0.00122193,-0.00773314 -0.00368294,-0.00957289 -0.00246101,-0.00184319 -0.00711188,-0.00275276 -0.0139526,-0.00275276l-0.00515886 0 0 0.0238378zm0 0.0367504l0.0046543 0c0.00472981,0 0.00827546,-0.000195645 0.0106198,-0.000562909 0.00234431,-0.000387858 0.0041875,-0.00104687 0.00556388,-0.00199764 0.0016647,-0.00108463 0.00294498,-0.00257771 0.00385799,-0.00441747 0.000909579,-0.00186035 0.00135579,-0.00389575 0.00135579,-0.00614395 0,-0.00263606 -0.000545748,-0.00496321 -0.00164754,-0.00691967 -0.00110522,-0.00197705 -0.00267725,-0.00350789 -0.00470922,-0.00459252 -0.00128028,-0.000662448 -0.00275276,-0.00112582 -0.0044003,-0.00143473 -0.00164754,-0.000291752 -0.0038374,-0.000446209 -0.00656957,-0.000446209l-0.0040708 0 -0.0046543 0 0 0.0265151zm-0.0132558 0.0112788l0 -0.0831458 0.0209718 0c0.00598949,0 0.010407,0.000326076 0.0132558,0.00096793 0.00286947,0.000638422 0.00529272,0.00170589 0.00730753,0.00317838 0.00257771,0.0018981 0.00457192,0.00437971 0.00598949,0.00744139 0.00141414,0.00308227 0.0021315,0.0064563 0.0021315,0.010177 0,0.00443806 -0.00102628,0.00814159 -0.00306168,0.0111037 -0.00205599,0.00298617 -0.00501813,0.00505932 -0.00891388,0.0062229 0.00484308,0.000755122 0.00864272,0.00296557 0.0114126,0.00662792 0.00277336,0.00364518 0.00417034,0.00825829 0.00417034,0.0138187 0,0.00335343 -0.000583504,0.0065524 -0.00176424,0.00959349 -0.00116358,0.00302735 -0.00283171,0.00560164 -0.00498381,0.00771598 -0.00228596,0.00230656 -0.00509708,0.0039335 -0.00846767,0.00488427 -0.00337402,0.000950768 -0.00901342,0.00141414 -0.0169594,0.00141414l-0.0210885 0zm0.112088 -0.0476791l0.00246101 0c0.00715307,0 0.0119,-0.000834067 0.0142444,-0.00249877 0.00234431,-0.00166813 0.00352848,-0.00461311 0.00352848,-0.00885896 0,-0.00457536 -0.00125968,-0.00779149 -0.00377904,-0.00967243 -0.00251936,-0.00188094 -0.00719083,-0.00281111 -0.0139938,-0.00281111l-0.00246101 0 0 0.0238413zm-0.000816905 0.0104653l0 0.0372138 -0.0126723 0 0 -0.0831458 0.0188369 0c0.00552269,0 0.00980629,0.000363832 0.0128714,0.0010812 0.00304108,0.000717366 0.00563939,0.00190154 0.00779149,0.00356624 0.00257771,0.00201824 0.00455476,0.00461311 0.0059689,0.00779149 0.00139354,0.00317838 0.00209375,0.00665194 0.00209375,0.0104481 0,0.00664851 -0.00160978,0.0118623 -0.00482592,0.0156413 -0.00321957,0.00375845 -0.00796654,0.00602725 -0.0142478,0.00678581l0.0286088 0.0378316 -0.0152329 0 -0.0276787 -0.0372138 -0.00151368 0zm0.101605 0.00453417l0.0231788 0 -0.00852602 -0.0189536c-0.000483965,-0.00120133 -0.00100912,-0.00259831 -0.00153084,-0.0041669 -0.000525153,-0.0015686 -0.00106747,-0.00331567 -0.00159262,-0.00525153 -0.000442776,0.00181916 -0.000926741,0.00350789 -0.00145189,0.00507648 -0.000504559,0.00157203 -0.00102628,0.00302392 -0.00155143,0.00434195l-0.00852602 0.0189536zm0.0373683 0.0326796l-0.00942187 -0.0213974 -0.0329474 0 -0.00965184 0.0213974 -0.0141894 0 0.0402549 -0.0864032 0.0402206 0.0864032 -0.0142649 0zm0.048901 -0.0166505l0.0107777 -0.00498038c0.00102628,0.00370353 0.00290722,0.00653181 0.00563939,0.0084711 0.00271501,0.00195645 0.0062023,0.00292438 0.0104481,0.00292438 0.00402961,0 0.00721142,-0.00112239 0.00959349,-0.00335 0.00236491,-0.00223104 0.00354564,-0.00521378 0.00354564,-0.00895507 0,-0.00488427 -0.0040502,-0.00924682 -0.0121712,-0.0130636 -0.00114298,-0.000562909 -0.0020148,-0.000988524 -0.00261547,-0.00124252 -0.00916787,-0.00447582 -0.0152741,-0.00850542 -0.0183152,-0.01213 -0.00304452,-0.00362459 -0.00457536,-0.00804549 -0.00457536,-0.0132593 0,-0.00678237 0.00230656,-0.0122673 0.00689907,-0.0164754 0.00459252,-0.00420466 0.0106404,-0.00629841 0.0181023,-0.00629841 0.00612679,0 0.0112616,0.00118417 0.0153908,0.00354908 0.00412571,0.00236147 0.00697802,0.00575609 0.00856721,0.0101736l-0.0105443 0.00546777c-0.00166813,-0.0026189 -0.00348729,-0.0045376 -0.00548493,-0.00573893 -0.00199764,-0.00121849 -0.0042836,-0.00182259 -0.00686132,-0.00182259 -0.00362459,0 -0.00653181,0.000950768 -0.00866331,0.00284887 -0.0021521,0.00188094 -0.00321957,0.0044209 -0.00321957,0.00759928 0,0.00500097 0.00471265,0.00967243 0.0141105,0.0139766 0.000717366,0.00034667 0.00128028,0.000617827 0.00170589,0.000792879 0.00821711,0.00379621 0.0138565,0.00749974 0.0169216,0.0111037 0.00306168,0.00362459 0.00459252,0.00814159 0.00459252,0.013551 0,0.007867 -0.00248161,0.0141277 -0.00744482,0.0187614 -0.00495978,0.00463027 -0.0116666,0.00695742 -0.0201171,0.00695742 -0.00707412,0 -0.012868,-0.00162695 -0.0174056,-0.00488427 -0.00451357,-0.00325732 -0.00747914,-0.00790819 -0.00887612,-0.0139766zm0.09542 0l0.0107777 -0.00498038c0.00102628,0.00370353 0.00290722,0.00653181 0.00563939,0.0084711 0.00271158,0.00195645 0.0062023,0.00292438 0.0104447,0.00292438 0.00403304,0 0.00721142,-0.00112239 0.00959692,-0.00335 0.00236491,-0.00223104 0.00354564,-0.00521378 0.00354564,-0.00895507 0,-0.00488427 -0.0040502,-0.00924682 -0.0121712,-0.0130636 -0.00114298,-0.000562909 -0.0020148,-0.000988524 -0.00261547,-0.00124252 -0.00916787,-0.00447582 -0.0152741,-0.00850542 -0.0183186,-0.01213 -0.00304108,-0.00362459 -0.00457192,-0.00804549 -0.00457192,-0.0132593 0,-0.00678237 0.00230656,-0.0122673 0.00689907,-0.0164754 0.00459252,-0.00420466 0.0106404,-0.00629841 0.0181023,-0.00629841 0.00612679,0 0.0112616,0.00118417 0.0153908,0.00354908 0.00412571,0.00236147 0.00697459,0.00575609 0.00856721,0.0101736l-0.0105443 0.00546777c-0.00166813,-0.0026189 -0.00349073,-0.0045376 -0.00548493,-0.00573893 -0.00199764,-0.00121849 -0.0042836,-0.00182259 -0.00686132,-0.00182259 -0.00362459,0 -0.00653181,0.000950768 -0.00866331,0.00284887 -0.0021521,0.00188094 -0.00321957,0.0044209 -0.00321957,0.00759928 0,0.00500097 0.00471265,0.00967243 0.0141105,0.0139766 0.000717366,0.00034667 0.00128028,0.000617827 0.00170589,0.000792879 0.00821711,0.00379621 0.0138565,0.00749974 0.0169182,0.0111037 0.00306511,0.00362459 0.00459595,0.00814159 0.00459595,0.013551 0,0.007867 -0.00248161,0.0141277 -0.00744482,0.0187614 -0.00495978,0.00463027 -0.0116666,0.00695742 -0.0201171,0.00695742 -0.00707412,0 -0.012868,-0.00162695 -0.0174056,-0.00488427 -0.00451357,-0.00325732 -0.00747914,-0.00790819 -0.00887612,-0.0139766zm0.13552 0.0166505l0 -0.0831458 0.0134892 0 0 0.0831458 -0.0134892 0zm0.0645252 0l0 -0.0864032 0.0528345 0.0507991c0.00143473,0.00143473 0.00289006,0.00296557 0.00437971,0.00459252 0.00147249,0.00162695 0.00302392,0.00347013 0.00465087,0.00550553l0 -0.0576399 0.0124458 0 0 0.0864032 -0.0538643 -0.0517499c-0.00143473,-0.00141414 -0.00282828,-0.00289006 -0.0041669,-0.00443806 -0.00135579,-0.00155143 -0.00261547,-0.00318181 -0.0038374,-0.00488427l0 0.0578149 -0.0124424 0zm0.138486 -0.012209l0.0113749 0c0.00624006,0 0.0109321,-0.000408453 0.0140521,-0.00124252 0.00314062,-0.000834067 0.00585563,-0.00224821 0.00815875,-0.00420466 0.00314062,-0.00269441 0.00550553,-0.00602725 0.00707412,-0.0100397 0.00157203,-0.00399185 0.00236834,-0.00864615 0.00236834,-0.0139354 0,-0.00530988 -0.000796311,-0.00994359 -0.00236834,-0.0139354 -0.0015686,-0.00401245 -0.0039335,-0.00734528 -0.00707412,-0.0100397 -0.00234431,-0.00195989 -0.00515543,-0.00337402 -0.00842991,-0.00420809 -0.00327449,-0.000834067 -0.00840932,-0.00123909 -0.0153908,-0.00123909l-0.00488084 0 -0.00488427 0 0 0.0588446zm-0.0134927 0.012209l0 -0.0831458 0.0182019 0c0.0118623,0 0.0201961,0.000597233 0.0250392,0.0017814 0.00482935,0.00120133 0.0090546,0.00319554 0.0126964,0.00598949 0.00480876,0.00368294 0.00845051,0.00839216 0.0109321,0.0141482 0.00248161,0.00575609 0.00372069,0.0123257 0.00372069,0.0197121 0,0.00738304 -0.00123909,0.0139148 -0.00372069,0.0196126 -0.00248161,0.00569774 -0.00612336,0.0104104 -0.0109321,0.0141311 -0.00364175,0.00279052 -0.0077709,0.00478816 -0.0124252,0.00598949 -0.00463027,0.00118074 -0.0118589,0.0017814 -0.0216651,0.0017814l-0.00364518 0 -0.0182019 0zm0.117322 -0.0831458l0.0133725 0 0 0.0504868c0,0.00748258 0.00172648,0.013122 0.00519662,0.0168839 0.0034667,0.00377904 0.00864272,0.00565655 0.0155418,0.00565655 0.00684416,0 0.0119962,-0.00187751 0.0154663,-0.00565655 0.00347013,-0.00376188 0.00519662,-0.00940127 0.00519662,-0.0168839l0 -0.0504868 0.0134892 0 0 0.0517293c0,0.011241 -0.00283171,0.0196709 -0.00850886,0.025252 -0.00568058,0.00558447 -0.0142444,0.00837499 -0.025681,0.00837499 -0.0114367,0 -0.0199627,-0.00279052 -0.0256055,-0.0083544 -0.00563939,-0.00556045 -0.00846767,-0.0139938 -0.00846767,-0.0252726l0 -0.0517293zm0.113715 0.0664954l0.0107777 -0.00498038c0.00102628,0.00370353 0.00290722,0.00653181 0.00563939,0.0084711 0.00271501,0.00195645 0.0062023,0.00292438 0.0104447,0.00292438 0.00403304,0 0.00721485,-0.00112239 0.00959692,-0.00335 0.00236491,-0.00223104 0.00354564,-0.00521378 0.00354564,-0.00895507 0,-0.00488427 -0.0040502,-0.00924682 -0.0121712,-0.0130636 -0.00114298,-0.000562909 -0.0020148,-0.000988524 -0.00261547,-0.00124252 -0.00916787,-0.00447582 -0.0152741,-0.00850542 -0.0183152,-0.01213 -0.00304452,-0.00362459 -0.00457536,-0.00804549 -0.00457536,-0.0132593 0,-0.00678237 0.00230656,-0.0122673 0.00689907,-0.0164754 0.00459252,-0.00420466 0.0106404,-0.00629841 0.0181023,-0.00629841 0.00612679,0 0.0112616,0.00118417 0.0153908,0.00354908 0.00412571,0.00236147 0.00697459,0.00575609 0.00856721,0.0101736l-0.0105443 0.00546777c-0.00166813,-0.0026189 -0.00348729,-0.0045376 -0.00548493,-0.00573893 -0.00199764,-0.00121849 -0.0042836,-0.00182259 -0.00686132,-0.00182259 -0.00362459,0 -0.00653181,0.000950768 -0.00866331,0.00284887 -0.0021521,0.00188094 -0.00321957,0.0044209 -0.00321957,0.00759928 0,0.00500097 0.00471265,0.00967243 0.0141105,0.0139766 0.000717366,0.00034667 0.00128028,0.000617827 0.00170589,0.000792879 0.00821711,0.00379621 0.0138565,0.00749974 0.0169216,0.0111037 0.00306168,0.00362459 0.00459252,0.00814159 0.00459252,0.013551 0,0.007867 -0.00248161,0.0141277 -0.00744482,0.0187614 -0.00495978,0.00463027 -0.0116666,0.00695742 -0.0201171,0.00695742 -0.00707412,0 -0.012868,-0.00162695 -0.0174056,-0.00488427 -0.00451357,-0.00325732 -0.00747914,-0.00790819 -0.00887612,-0.0139766zm0.127053 -0.0549832l0 0.0716337 -0.0134892 0 0 -0.0716337 -0.0220976 0 0 -0.0115122 0.0575644 0 0 0.0115122 -0.0219775 0zm0.0773932 0.0239545l0.00246101 0c0.00715307,0 0.0119,-0.000834067 0.0142444,-0.00249877 0.00234774,-0.00166813 0.00352848,-0.00461311 0.00352848,-0.00885896 0,-0.00457536 -0.00125968,-0.00779149 -0.00377904,-0.00967243 -0.00251936,-0.00188094 -0.00719083,-0.00281111 -0.0139938,-0.00281111l-0.00246101 0 0 0.0238413zm-0.000813473 0.0104653l0 0.0372138 -0.0126758 0 0 -0.0831458 0.0188369 0c0.00552612,0 0.00980973,0.000363832 0.0128714,0.0010812 0.00304108,0.000717366 0.00563939,0.00190154 0.00779149,0.00356624 0.00257771,0.00201824 0.00455476,0.00461311 0.0059689,0.00779149 0.00139698,0.00317838 0.00209375,0.00665194 0.00209375,0.0104481 0,0.00664851 -0.00160978,0.0118623 -0.00482592,0.0156413 -0.00321614,0.00375845 -0.00796654,0.00602725 -0.0142444,0.00678581l0.0286054 0.0378316 -0.0152329 0 -0.0276787 -0.0372138 -0.00151024 0zm0.0842751 0.0372138l0 -0.0831458 0.0134892 0 0 0.0831458 -0.0134892 0zm0.0645218 0l0 -0.0831458 0.0464023 0 0 0.0115122 -0.0329096 0 0 0.0208139 0.0329096 0 0 0.0118623 -0.0329096 0 0 0.0268652 0.0329096 0 0 0.0120923 -0.0464023 0zm0.0887132 -0.0166505l0.0107777 -0.00498038c0.00102628,0.00370353 0.00290722,0.00653181 0.00563939,0.0084711 0.00271501,0.00195645 0.0062023,0.00292438 0.0104481,0.00292438 0.00403304,0 0.00721142,-0.00112239 0.00959349,-0.00335 0.00236491,-0.00223104 0.00354564,-0.00521378 0.00354564,-0.00895507 0,-0.00488427 -0.0040502,-0.00924682 -0.0121712,-0.0130636 -0.00114298,-0.000562909 -0.0020148,-0.000988524 -0.00261547,-0.00124252 -0.00916787,-0.00447582 -0.0152741,-0.00850542 -0.0183152,-0.01213 -0.00304452,-0.00362459 -0.00457536,-0.00804549 -0.00457536,-0.0132593 0,-0.00678237 0.00230656,-0.0122673 0.00689907,-0.0164754 0.00459252,-0.00420466 0.0106438,-0.00629841 0.0181058,-0.00629841 0.00612336,0 0.0112582,0.00118417 0.0153873,0.00354908 0.00412915,0.00236147 0.00697802,0.00575609 0.00856721,0.0101736l-0.0105443 0.00546777c-0.0016647,-0.0026189 -0.00348729,-0.0045376 -0.00548493,-0.00573893 -0.00199764,-0.00121849 -0.0042836,-0.00182259 -0.00686132,-0.00182259 -0.00362459,0 -0.00653181,0.000950768 -0.00866331,0.00284887 -0.0021521,0.00188094 -0.00321614,0.0044209 -0.00321614,0.00759928 0,0.00500097 0.00470922,0.00967243 0.0141071,0.0139766 0.000717366,0.00034667 0.00128028,0.000617827 0.00170589,0.000792879 0.00821711,0.00379621 0.0138599,0.00749974 0.0169216,0.0111037 0.00306168,0.00362459 0.00459252,0.00814159 0.00459252,0.013551 0,0.007867 -0.00248161,0.0141277 -0.00744139,0.0187614 -0.00496321,0.00463027 -0.0116666,0.00695742 -0.0201206,0.00695742 -0.00707412,0 -0.012868,-0.00162695 -0.0174021,-0.00488427 -0.00451701,-0.00325732 -0.00748258,-0.00790819 -0.00887955,-0.0139766z"/>
   <g>
    <path id="_106820120" class="fil0" d="M2.20345 0.690518c-0.00480532,-0.000453073 -0.0126311,-0.000209375 -0.017663,-0.000133863 -0.00232029,3.08914e-005 -0.00205599,0.00096793 -0.00427674,0.00472638 -0.00784984,0.0132936 -0.00759241,0.0104825 -0.00377904,0.0171378l0.00663821 0.0113097 0.0185554 6.86475e-006c0.00102628,-0.000267725 0.00433166,-0.00674462 0.0051211,-0.00809697 0.000703637,-0.0012082 0.00461998,-0.00758898 0.00462341,-0.00842991 0,-0.000820338 -0.00791849,-0.0144434 -0.00921936,-0.01652z"/>
    <path id="_106820192" class="fil0" d="M2.08874 0.690439c-0.000909579,0.00130773 -0.00940814,0.0158953 -0.00938755,0.0165681 2.05942e-005,0.000573207 0.00842648,0.0151814 0.0093189,0.016393 0.00221388,0.000353535 0.017282,0.000377561 0.0192831,-4.46209e-005 0.000858094,-0.00143817 0.00928801,-0.0151505 0.00910266,-0.0166196 -8.58094e-005,-0.000683043 -0.00796311,-0.0144572 -0.00922622,-0.0162901l-0.0190909 -6.86475e-006z"/>
    <path id="_106820240" class="fil0" d="M2.05992 0.690611c-0.00131803,-0.000435912 -0.0139046,-0.000205942 -0.0171241,-0.000199078 -0.00247131,3.43237e-006 -0.00215553,0.000363832 -0.0031166,0.00218299 -0.000830635,0.00157546 -0.00805922,0.0134137 -0.00804549,0.01444 1.37295e-005,0.00089585 0.00691967,0.0124595 0.00802832,0.0144263 0.00122536,0.00217613 0.000985092,0.00212464 0.00387858,0.00211091 0.0040502,-1.37295e-005 0.0139766,0.000240266 0.0167534,-0.000195645 0.00146562,-0.00351475 0.00922622,-0.0148107 0.00902715,-0.0166264 -2.7459e-005,-0.00026086 -0.00835097,-0.01548 -0.00940127,-0.016139z"/>
    <path id="_106820312" class="fil0" d="M1.99298 0.690542c-0.0105889,0.0197018 -0.0107536,0.0139492 -0.00578698,0.0226537 0.0010915,0.0019084 0.00208345,0.00370353 0.00329851,0.00578355 0.00237864,0.0040708 0.00194959,0.00449984 0.00426987,0.00461998 0.00416347,0.000212807 0.0135476,0.000302049 0.0175051,-0.000157889 0.00122879,-0.0016647 0.0094459,-0.0156791 0.00933263,-0.0166848 -6.52151e-005,-0.000552612 -0.00874569,-0.0155452 -0.00940814,-0.0163244l-0.019211 0.000109836z"/>
    <path id="_106820384" class="fil0" d="M2.13631 0.723126l0.0193105 0.000319211c0.000916444,-0.00123222 0.00939441,-0.015861 0.00930517,-0.0167019 -6.17827e-005,-0.000562909 -0.00881434,-0.0155727 -0.00938411,-0.0163072l-0.0191115 -1.71619e-005c-0.00225164,0.00440374 -0.00817935,0.0135819 -0.00938755,0.016623l0.00926741 0.0160841z"/>
   </g>
   <path id="_106820048" class="fil4" d="M1.43472 0.216579c0,0.00357997 0.000665881,0.00698488 0.00200451,0.0102422 0.00133519,0.0032333 0.00327449,0.00611306 0.00577669,0.00861526 0.00251593,0.00255025 0.00540599,0.00452044 0.00870107,0.00592771 0.00330194,0.00140384 0.00671029,0.00210748 0.010225,0.00210748 0.00361429,0 0.00702264,-0.000689907 0.0102559,-0.00204226 0.00322643,-0.00134892 0.00615082,-0.0033397 0.00875599,-0.00599293 0.0025022,-0.0025022 0.00443463,-0.00538196 0.00579042,-0.00861526 0.00135236,-0.00325732 0.00203883,-0.00666224 0.00203883,-0.0102422 0,-0.00357997 -0.000669313,-0.00697802 -0.00200451,-0.0101633 -0.00133519,-0.00319554 -0.00332254,-0.00610963 -0.00592771,-0.00874912 -0.0025022,-0.00258458 -0.00537853,-0.00454103 -0.00863242,-0.00589339 -0.00324016,-0.00135579 -0.00666224,-0.00203883 -0.0102765,-0.00203883 -0.00349416,0 -0.00685445,0.000683043 -0.0101221,0.00205256 -0.00326076,0.00137295 -0.00620573,0.0033294 -0.00880404,0.00587966 -0.0025022,0.00243012 -0.00444149,0.00529272 -0.00577669,0.00858094 -0.00133863,0.00327105 -0.00200451,0.00671716 -0.00200451,0.0103314zm0.0174708 0.0350274c-0.00851229,-0.00207315 -0.0153118,-0.00633616 -0.0204535,-0.0127959 -0.00513483,-0.0064563 -0.00770568,-0.0139801 -0.00770568,-0.0225782 0,-0.00469206 0.000961065,-0.00922966 0.00285917,-0.0136471 0.00190154,-0.0044209 0.00463027,-0.00832694 0.00814159,-0.0117044 0.0035731,-0.00344267 0.00761644,-0.00606157 0.0121403,-0.0078773 0.00450671,-0.00179856 0.00926741,-0.00270814 0.0142547,-0.00270814 0.00506619,0 0.0099024,0.000909579 0.0144709,0.00274247 0.00455476,0.00181573 0.00858437,0.00443463 0.0120648,0.00784298 0.00364861,0.00354564 0.00638422,0.00750317 0.0082377,0.011852 0.00182946,0.00433852 0.0027562,0.0090649 0.0027562,0.0141517 0,0.00828919 -0.00258458,0.0155384 -0.00777433,0.0217578 -0.00518975,0.00619887 -0.0123051,0.0105168 -0.0213288,0.0129641 0.00421496,0.00188094 0.00793222,0.00324016 0.0111655,0.00407766 0.00322643,0.000840932 0.00632243,0.00124938 0.00930174,0.00124938 0.000974794,0 0.00203883,-6.86475e-005 0.00318524,-0.000205942 0.00116701,-0.000137295 0.00241639,-0.000326076 0.00378591,-0.000600666l0.000415317 0.00106404 -0.009542 0.00827202c-0.000326076,6.86475e-005 -0.000652151,0.000102971 -0.000961065,0.000123565 -0.000291752,1.37295e-005 -0.000748258,3.43237e-005 -0.00140384,3.43237e-005 -0.00457536,0 -0.00971362,-0.00120133 -0.0154148,-0.00356624 -0.00570804,-0.00237864 -0.0117696,-0.00585906 -0.018195,-0.0104481zm0.086616 -0.00566685c-0.00231342,0.00221045 -0.00461311,0.00382023 -0.00690937,0.00484308 -0.00229283,0.00101598 -0.0047607,0.00152741 -0.0074002,0.00152741 -0.00505246,0 -0.00902371,-0.00146219 -0.0119344,-0.00436598 -0.00291409,-0.00291065 -0.00437285,-0.00688878 -0.00437285,-0.0119412l0 -0.0307644 0.00933606 0 0 0.028396c0,0.00375159 0.000792879,0.00652838 0.00238207,0.00830635 0.00159605,0.001802 0.00406393,0.00269441 0.0074002,0.00269441 0.00237864,0 0.00445179,-0.000463371 0.00625379,-0.00139011 0.00177797,-0.000906147 0.00352505,-0.00244728 0.00524467,-0.00458909l0 -0.0334176 0.00922622 0 0 0.046368 -0.00922622 0 0 -0.00566685zm0.0437628 -0.00377218l0 -0.0135853c-0.00621946,0.00193586 -0.0105168,0.00373786 -0.0128645,0.00536137 -0.00236491,0.00165097 -0.00354564,0.00354564 -0.00354564,0.00572177 0,0.00190154 0.000614395,0.00337402 0.00183632,0.00440374 0.00121163,0.00104344 0.00292438,0.00155487 0.00513483,0.00155487 0.00164411,0 0.00325389,-0.000284887 0.00481562,-0.000871823 0.00157546,-0.000600666 0.0031166,-0.00145189 0.00462341,-0.00258458zm0.000360399 0.0056188c-0.00234431,0.00164411 -0.00457536,0.00282484 -0.00666224,0.00354908 -0.00209375,0.000713934 -0.00433852,0.00107433 -0.00675148,0.00107433 -0.00414631,0 -0.00737961,-0.000995389 -0.00972735,-0.0029793 -0.00235118,-0.00198391 -0.00351132,-0.00472638 -0.00351132,-0.00820338 0,-0.00327449 0.00126311,-0.00615082 0.00382023,-0.00863586 0.00252966,-0.00246788 0.00637049,-0.00455476 0.0114779,-0.00626752l0.0109939 -0.00366921c3.43237e-005,-0.000271158 5.4918e-005,-0.000532018 6.86475e-005,-0.000803176 2.05942e-005,-0.00027459 3.43237e-005,-0.000648719 3.43237e-005,-0.00114641 0,-0.00279052 -0.000683043,-0.00479503 -0.00203883,-0.00601352 -0.00135236,-0.00121506 -0.0035834,-0.00182946 -0.0067,-0.00182946 -0.00257085,0 -0.00522407,0.000545748 -0.00797684,0.00162351 -0.00274247,0.00109836 -0.00548493,0.00270814 -0.0082274,0.00484995l0 -0.00913355c0.00238207,-0.00194959 0.00504216,-0.00340835 0.00798714,-0.00439687 0.00294498,-0.000978227 0.00606157,-0.00147592 0.00938411,-0.00147592 0.00594144,0 0.0102765,0.00131803 0.0129984,0.00393693 0.00270814,0.00262577 0.00406393,0.00687505 0.00406393,0.0127341l0 0.0196126c0,0.00164411 0.000137295,0.00280425 0.000425614,0.00349073 0.000291752,0.000683043 0.000755122,0.00102971 0.00143817,0.00102971 0.000566342,0 0.00115328,-0.000154457 0.00178483,-0.000449641 0.000614395,-0.000305481 0.00162351,-0.00100912 0.00303079,-0.00212121l0 0.00563596c-0.00167843,0.00143817 -0.00335686,0.0025022 -0.00506962,0.00318181 -0.00171619,0.000689907 -0.003477,0.00102971 -0.00532361,0.00102971 -0.00178827,0 -0.0031063,-0.000374129 -0.00399872,-0.00110866 -0.000885553,-0.000737961 -0.00140384,-0.00190497 -0.00152054,-0.00351475zm0.0216686 0.00382023l0 -0.0702127 0.00923309 0 0 0.0702127 -0.00923309 0zm0.0210851 -0.0600219c0,-0.00145189 0.000497694,-0.00270814 0.00150681,-0.00369667 0.000998821,-0.00101598 0.00224477,-0.00150681 0.00371726,-0.00150681 0.00146219,0 0.00270814,0.00049083 0.00370353,0.00150681 0.00100912,0.000988524 0.00150681,0.00224477 0.00150681,0.00369667 0,0.00147249 -0.000497694,0.00272187 -0.00150681,0.00371726 -0.000995389,0.00100912 -0.00224134,0.00150681 -0.00370353,0.00150681 -0.00147249,0 -0.00271844,-0.000497694 -0.00371726,-0.00150681 -0.00100912,-0.000995389 -0.00150681,-0.00224477 -0.00150681,-0.00371726zm0.000600666 0.0600219l0 -0.046368 0.00923652 0 0 0.046368 -0.00923652 0zm0.0470029 -0.00145189c-0.00143817,0.000803176 -0.00299303,0.00139698 -0.00465773,0.00177797 -0.00164411,0.000391291 -0.00342208,0.000580071 -0.00534078,0.000580071 -0.00521034,0 -0.00889328,-0.00123222 -0.0110145,-0.00371726 -0.00212464,-0.00246788 -0.00318868,-0.00698832 -0.00318868,-0.013551l0 -0.0219741 -0.0078773 0 0 -0.000906147 0.0162042 -0.017917 0.00106404 0 0 0.0107914 0.0145052 0 0 0.00803176 -0.0145052 0 0 0.0212739c0,0.0038374 0.0004771,0.00632243 0.00143817,0.00745169 0.000940471,0.00111209 0.00272187,0.00167843 0.00534078,0.00167843 0.00140384,0 0.00277336,-0.000188781 0.00411199,-0.000545748 0.00133519,-0.000380994 0.0026395,-0.000940471 0.00391977,-0.00171276l0 0.00873883zm0.0196709 -0.00768165l-0.0195268 -0.0372344 0.0102903 0 0.0143027 0.0271501 0.0133451 -0.0271501 0.0100877 0 -0.0344267 0.0696978 -0.0100946 0 0.0160223 -0.0324634zm0.0776643 0.00963124l-0.0259831 -0.0707104 0.0104001 0 0.0171447 0.0479262 0.0189261 -0.0479262 0.00637735 0 0.0187202 0.0480258 0.0174536 -0.0480258 0.0101942 0 -0.0264464 0.0707104 -0.00226537 0 -0.0209787 -0.0540427 -0.0211743 0.0540427 -0.00236834 0zm0.0770534 -0.0605196c0,-0.00145189 0.000497694,-0.00270814 0.00150681,-0.00369667 0.000995389,-0.00101598 0.00224477,-0.00150681 0.00371726,-0.00150681 0.00145876,0 0.00270814,0.00049083 0.00370353,0.00150681 0.00100912,0.000988524 0.00150681,0.00224477 0.00150681,0.00369667 0,0.00147249 -0.000497694,0.00272187 -0.00150681,0.00371726 -0.000995389,0.00100912 -0.00224477,0.00150681 -0.00370353,0.00150681 -0.00147249,0 -0.00272187,-0.000497694 -0.00371726,-0.00150681 -0.00100912,-0.000995389 -0.00150681,-0.00224477 -0.00150681,-0.00371726zm0.000600666 0.0600219l0 -0.046368 0.00923309 0 0 0.046368 -0.00923309 0zm0.0470029 -0.00145189c-0.0014416,0.000803176 -0.00299646,0.00139698 -0.00465773,0.00177797 -0.00164411,0.000391291 -0.00342551,0.000580071 -0.00534078,0.000580071 -0.00521034,0 -0.00889328,-0.00123222 -0.0110145,-0.00371726 -0.00212807,-0.00246788 -0.00319211,-0.00698832 -0.00319211,-0.013551l0 -0.0219741 -0.0078773 0 0 -0.000906147 0.0162042 -0.017917 0.00106404 0 0 0.0107914 0.0145052 0 0 0.00803176 -0.0145052 0 0 0.0212739c0,0.0038374 0.0004771,0.00632243 0.00143817,0.00745169 0.000940471,0.00111209 0.00272187,0.00167843 0.00534078,0.00167843 0.00140384,0 0.00277679,-0.000188781 0.00411199,-0.000545748 0.00133863,-0.000380994 0.0026395,-0.000940471 0.0039232,-0.00171276l0 0.00873883zm0.00767822 0.00145189l0 -0.0702127 0.00922622 0 0 0.0295116c0.00232029,-0.00221045 0.00460968,-0.00382023 0.00690937,-0.00484995 0.00229283,-0.00100912 0.0047607,-0.00152054 0.0074002,-0.00152054 0.00505246,0 0.00902371,0.00145189 0.0119344,0.00436598 0.00291409,0.00291065 0.00437285,0.00690594 0.00437285,0.0119962l0 0.0307095 -0.00933606 0 0 -0.0283514c0,-0.00378591 -0.000772284,-0.00655927 -0.00233401,-0.00834067 -0.00155487,-0.00176424 -0.00398842,-0.00265323 -0.00729723,-0.00265323 -0.00244728,0 -0.00458909,0.000463371 -0.00642541,0.00140727 -0.00184662,0.000940471 -0.0035731,0.00244728 -0.00522407,0.00452044l0 0.0334176 -0.00922622 0zm0.0791403 0l0 -0.0702127 0.0100363 0 0 0.0702127 -0.0100363 0zm0.0237383 0l0 -0.046368 0.00922966 0 0 0.00566685c0.00230999,-0.00221045 0.00460968,-0.00382023 0.00689907,-0.00484995 0.00229969,-0.00100912 0.00476757,-0.00152054 0.00740706,-0.00152054 0.0050147,0 0.00897566,0.00145189 0.0118657,0.00436598 0.00290036,0.00291065 0.00433852,0.00690594 0.00433852,0.0119962l0 0.0307095 -0.00923309 0 0 -0.0283514c0,-0.00375159 -0.000792879,-0.00652494 -0.00238207,-0.00830635 -0.00159605,-0.00179856 -0.00406393,-0.00268755 -0.00739677,-0.00268755 -0.00238893,0 -0.00445522,0.000463371 -0.00625722,0.00138668 -0.00177797,0.000906147 -0.00353191,0.00243355 -0.00524124,0.00454103l0 0.0334176 -0.00922966 0zm0.0768886 -0.00145189c-0.00143817,0.000803176 -0.00299303,0.00139698 -0.00465773,0.00177797 -0.00164411,0.000391291 -0.00342208,0.000580071 -0.00534078,0.000580071 -0.00521034,0 -0.00889328,-0.00123222 -0.0110145,-0.00371726 -0.00212807,-0.00246788 -0.00319211,-0.00698832 -0.00319211,-0.013551l0 -0.0219741 -0.0078773 0 0 -0.000906147 0.0162042 -0.017917 0.00106404 0 0 0.0107914 0.0145086 0 0 0.00803176 -0.0145086 0 0 0.0212739c0,0.0038374 0.000480532,0.00632243 0.0014416,0.00745169 0.000940471,0.00111209 0.00271844,0.00167843 0.00533734,0.00167843 0.00140727,0 0.00277679,-0.000188781 0.00411542,-0.000545748 0.00133519,-0.000380994 0.0026395,-0.000940471 0.00391977,-0.00171276l0 0.00873883zm0.0481699 -0.0034667c-0.00308227,0.00197362 -0.00625379,0.0034667 -0.00950768,0.00445522 -0.00326762,0.000974794 -0.00662792,0.00147249 -0.0101221,0.00147249 -0.00731782,0 -0.0131735,-0.0022585 -0.0175394,-0.00679953 -0.00437285,-0.00454103 -0.00654554,-0.0105854 -0.00654554,-0.0181401 0,-0.00693683 0.00210748,-0.0125556 0.00630527,-0.0168736 0.00419436,-0.00431793 0.0096793,-0.00647346 0.0164239,-0.00647346 0.00669656,0 0.0120099,0.00218986 0.0159194,0.00657643 0.00391977,0.00438314 0.00586936,0.0102971 0.00586936,0.017766l0 0.00134892 -0.0347322 0c0.000271158,0.00438658 0.00171276,0.00781552 0.00431793,0.01028 0.00259831,0.00244728 0.00610963,0.00368294 0.0104825,0.00368294 0.00294498,0 0.00602725,-0.000545748 0.00921249,-0.00162351 0.00320584,-0.00109836 0.00650435,-0.00274247 0.00991613,-0.00495292l0 0.00928114zm-0.033929 -0.0232406l0.0245449 -5.4918e-005c-0.000308914,-0.00333627 -0.00152741,-0.00603068 -0.00366921,-0.00806951 -0.0021418,-0.00203883 -0.00480876,-0.00306168 -0.00803519,-0.00306168 -0.00354564,0 -0.00640138,0.000940471 -0.0085775,0.00282484 -0.00217613,0.00190154 -0.0035937,0.00467833 -0.00426301,0.00836127zm0.0461105 0.0367916c0,0.0022585 0.00112925,0.00399185 0.00340835,0.00513827 0.0022791,0.00114985 0.00563939,0.00172992 0.0100603,0.00172992 0.00431106,0 0.00768509,-0.000566342 0.0101324,-0.00170932 0.00245758,-0.00113268 0.00366921,-0.00268755 0.00366921,-0.00465773 0,-0.00217613 -0.00139011,-0.00382023 -0.00414631,-0.00491859 -0.00275276,-0.00111209 -0.00689907,-0.0016647 -0.0124321,-0.0016647 -0.00313719,0 -0.00570804,0.000586936 -0.00771255,0.00173335 -0.00198391,0.00114641 -0.0029793,0.00260517 -0.0029793,0.00434882zm0.0054815 -0.0234328c-0.003477,-0.00107777 -0.00613022,-0.00284201 -0.00794595,-0.00532705 -0.00183289,-0.00246788 -0.00273904,-0.00552956 -0.00273904,-0.00917817 0,-0.0056188 0.00193586,-0.00986808 0.00582131,-0.0127478 0.00386829,-0.00287633 0.00962438,-0.0043145 0.0172683,-0.0043145l0.0184147 0 0 0.00752033 -0.00782925 0c0.00126998,0.00136609 0.00221045,0.00282484 0.00281111,0.00433166 0.000600666,0.00152741 0.000906147,0.00324016 0.000906147,0.00510051 0,0.00389575 -0.0011876,0.00719426 -0.00354564,0.00993673 -0.00234774,0.00274247 -0.00553299,0.00447582 -0.00950768,0.00517602 -0.000871823,0.000171619 -0.00203883,0.000363832 -0.00351132,0.000600666 -0.00498724,0.000772284 -0.00748944,0.00203883 -0.00748944,0.00382023 0,0.00176081 0.00356624,0.00335343 0.0106953,0.0047607 0.00174365,0.000339805 0.0031166,0.000600666 0.00412571,0.000803176 0.00448611,0.000940471 0.0078773,0.0025022 0.0101873,0.00471265 0.00232029,0.00221045 0.0034667,0.00502156 0.0034667,0.00842991 0,0.00472638 -0.00197362,0.00832008 -0.00589339,0.010788 -0.0039438,0.00248504 -0.00966557,0.00371726 -0.0171447,0.00371726 -0.00733155,0 -0.0129401,-0.0011979 -0.0168049,-0.00357997 -0.00385456,-0.00239923 -0.00579042,-0.00587966 -0.00579042,-0.0104138 0,-0.00325389 0.00112582,-0.00592771 0.00338775,-0.00803519 0.00226537,-0.00210405 0.00558791,-0.00356624 0.00995045,-0.00436941 -0.00175738,-0.000806608 -0.00306168,-0.00165784 -0.00386485,-0.00258458 -0.000827202,-0.000906147 -0.00123565,-0.00193586 -0.00123565,-0.00308227 0,-0.00120133 0.000497694,-0.00229969 0.00150681,-0.00325389 0.000995389,-0.000974794 0.00258458,-0.00191527 0.0047607,-0.00281111zm0.00809011 -0.0237383c-0.00284544,0 -0.00517602,0.000816905 -0.00695742,0.00248161 -0.001802,0.0016647 -0.00268755,0.00377218 -0.00268755,0.00633616 0,0.00270814 0.000851229,0.00483622 0.00255025,0.00635676 0.00171276,0.00152741 0.00407766,0.00227566 0.00709472,0.00227566 0.00302735,0 0.00544031,-0.000768852 0.00722858,-0.00230999 0.00175738,-0.00152054 0.00265323,-0.00362802 0.00265323,-0.00632243 0,-0.00256398 -0.000926741,-0.00467146 -0.00279739,-0.00633616 -0.00184662,-0.0016647 -0.00420809,-0.00248161 -0.00708442,-0.00248161zm0.0297209 0.0385387l0 -0.046368 0.00922622 0 0 0.0100706c0.00257085,-0.00404334 0.00490486,-0.00686475 0.00695742,-0.0084608 0.00205256,-0.00160978 0.0042836,-0.00241639 0.00669656,-0.00241639 0.00167843,0 0.00337746,0.000363832 0.00508678,0.00109836 0.00173335,0.000737961 0.00356967,0.00188437 0.00549866,0.00342551l-0.00502156 0.00822397c-0.00150681,-0.0013043 -0.00294498,-0.00224477 -0.00430763,-0.00284544 -0.00137295,-0.000586936 -0.00281111,-0.000871823 -0.00431793,-0.000871823 -0.0025022,0 -0.00469892,0.00105717 -0.00657986,0.00316465 -0.00187064,0.00210748 -0.00320584,0.00503873 -0.00401245,0.00879031l0 0.026189 -0.00922622 0zm0.0381234 -0.0600219c0,-0.00145189 0.000497694,-0.00270814 0.00150681,-0.00369667 0.000995389,-0.00101598 0.00224477,-0.00150681 0.00371726,-0.00150681 0.00145876,0 0.00270814,0.00049083 0.00370353,0.00150681 0.00100912,0.000988524 0.00150681,0.00224477 0.00150681,0.00369667 0,0.00147249 -0.000497694,0.00272187 -0.00150681,0.00371726 -0.000995389,0.00100912 -0.00224477,0.00150681 -0.00370353,0.00150681 -0.00147249,0 -0.00272187,-0.000497694 -0.00371726,-0.00150681 -0.00100912,-0.000995389 -0.00150681,-0.00224477 -0.00150681,-0.00371726zm0.000600666 0.0600219l0 -0.046368 0.00923309 0 0 0.046368 -0.00923309 0zm0.0470029 -0.00145189c-0.00143817,0.000803176 -0.00299303,0.00139698 -0.00465773,0.00177797 -0.00164411,0.000391291 -0.00342551,0.000580071 -0.00534078,0.000580071 -0.00521034,0 -0.00889328,-0.00123222 -0.0110145,-0.00371726 -0.00212807,-0.00246788 -0.00319211,-0.00698832 -0.00319211,-0.013551l0 -0.0219741 -0.0078773 0 0 -0.000906147 0.0162042 -0.017917 0.00106404 0 0 0.0107914 0.0145052 0 0 0.00803176 -0.0145052 0 0 0.0212739c0,0.0038374 0.0004771,0.00632243 0.00143817,0.00745169 0.000943903,0.00111209 0.00272187,0.00167843 0.00534078,0.00167843 0.00140727,0 0.00277679,-0.000188781 0.00411199,-0.000545748 0.00133863,-0.000380994 0.0026395,-0.000940471 0.0039232,-0.00171276l0 0.00873883zm0.0196675 -0.00768165l-0.0195233 -0.0372344 0.0102903 0 0.0143027 0.0271501 0.0133451 -0.0271501 0.0100877 0 -0.0344267 0.0696978 -0.0100946 0 0.0160189 -0.0324634z"/>
   <line id="_106820456" class="fil5 str0" x1="1.45852" y1="0.314814" x2="2.31125" y2= "0.314814" />
  </g>
 </g>
</svg>
