<?xml version="1.0" encoding="UTF-8"?>
<!DOCTYPE svg PUBLIC "-//W3C//DTD SVG 1.1//EN" "http://www.w3.org/Graphics/SVG/1.1/DTD/svg11.dtd">
<!-- Creator: CorelDRAW -->
<svg xmlns="http://www.w3.org/2000/svg" xml:space="preserve" width="2.21993in" height="0.720488in" style="shape-rendering:geometricPrecision; text-rendering:geometricPrecision; image-rendering:optimizeQuality; fill-rule:evenodd; clip-rule:evenodd"
viewBox="0 0 1.59362 0.517218"
 xmlns:xlink="http://www.w3.org/1999/xlink">
 <defs>
  <style type="text/css">
   <![CDATA[
    .str0 {stroke:white;stroke-width:0.00565253;stroke-dasharray:0.028263 0.028263}
    .fil3 {fill:none}
    .fil0 {fill:white}
    .fil1 {fill:#008AC8}
    .fil2 {fill:white;fill-rule:nonzero}
   ]]>
  </style>
 </defs>
 <g id="Layer_x0020_1">
  <metadata id="CorelCorpID_0Corel-Layer"/>
  <g id="_103532584">
   <path id="_103517680" class="fil0" d="M0.272873 0.385251l-0.0540721 0.0319905c-0.0197302,0.0133598 -0.0167032,0.0113362 -0.0394519,0.000788528l-0.0997814 -0.0440587c-0.0145016,-0.00667847 -0.0112768,-0.00282344 -0.0207391,-0.036798l-0.0132326 -0.0443046c-0.00210557,-0.00795594 -0.0102396,-0.039709 -0.0152845,-0.043403 -0.00244755,0.0105137 -0.00737938,0.021115 -0.0109546,0.0316203 -0.00574863,0.0168926 -0.0223303,0.0536708 -0.0188908,0.0649137 0.00593799,0.0194249 0.0119749,0.0465458 0.0188908,0.0674686l0.0120258 0.0420577c0.00239102,0.00522011 0.0161889,0.00932103 0.0217962,0.0115764l0.104193 0.0465543c0.00692435,0.00292236 0.00938321,0.00551687 0.0154371,0.00149227 0.0152534,-0.0101463 0.0251396,-0.0152675 0.0404241,-0.024077l0.0515737 -0.030128c0.00674065,-0.00458986 0.00515228,-0.00569775 0.00995129,-0.0176642 0.0022271,-0.00554514 0.0044005,-0.0106409 0.00624322,-0.0156236 0.011079,-0.0301421 0.00821596,-0.0296447 -0.00812834,-0.0424053z"/>
   <path id="_103517632" class="fil0" d="M0.0418259 0.279597l0.0540721 -0.0319905c0.0197302,-0.0133598 0.0263436,-0.0232489 0.0490923,-0.0126984l0.0918424 0.0344155c0.0145016,0.00667847 0.00957539,0.0243766 0.0190377,0.0583511l0.0132326 0.0443046c0.00210557,0.00795594 0.0102396,0.039709 0.0152845,0.043403 0.00244755,-0.0105109 0.00737938,-0.021115 0.0109546,-0.0316203 0.00574863,-0.0168926 0.0223303,-0.0536708 0.0188908,-0.0649137 -0.00593799,-0.0194249 -0.0119749,-0.0465458 -0.0188908,-0.0674686l-0.0120258 -0.0420577c-0.00239102,-0.00522011 -0.0161889,-0.00932103 -0.0217962,-0.0115764l-0.104193 -0.0465543c-0.00692435,-0.00292236 -0.00938321,-0.00551687 -0.0154371,-0.00149227 -0.0152534,0.0101463 -0.0251396,0.0152675 -0.0404241,0.024077l-0.0515737 0.030128c-0.00674065,0.00458986 -0.00515228,0.00570058 -0.00995129,0.0176642 -0.0022271,0.00554514 -0.0044005,0.0106409 -0.00624322,0.0156236 -0.011079,0.0301421 -0.00821596,0.0296447 0.00812834,0.0424053z"/>
   <path id="_103517584" class="fil1" d="M0.134553 0.345141c0.00972801,0 0.0211913,0.00446268 0.0293564,0.00862011 0.00816226,0.00415461 0.0152025,0.0100474 0.0215644,0.0164093l0.0123706 0.0129443c0.00855794,-0.00199252 0.00701479,-0.00786267 0.000782876,-0.0203463 -0.00981845,-0.0196736 -0.0323438,-0.0368121 -0.053716,-0.041792l0.0226977 0.00492053c0.0340254,0.0145807 0.0413822,0.0409243 0.0463451,0.0445617 0.000777223,-0.0348479 -0.019538,-0.0612932 -0.0522153,-0.0720642l-0.0133767 -0.00503641c0.00726351,0.000161097 0.0210529,0.00410657 0.0268184,0.00655411 0.0365832,0.0155162 0.0456442,0.0488888 0.0514324,0.050983 0,-0.0169067 -0.0035074,-0.0274317 -0.0108331,-0.0374989 -0.00785137,-0.0107963 -0.0139109,-0.0158073 -0.0254844,-0.0228447 -0.0372474,-0.022644 -0.0903699,-0.0118929 -0.0879873,0.0350457 0.00192469,0.0379285 0.0493381,0.0627064 0.0840277,0.0598208 -0.00260299,-0.0111722 -0.0228532,-0.0272876 -0.0354753,-0.0335704 -0.0109659,-0.00546035 -0.00721546,-0.00294214 -0.0147333,-0.00597755l-0.00157423 -0.000729177z"/>
   <g>
    <path id="_103517440" class="fil0" d="M0.781418 0.149125c0.00985237,0.0252951 0.0262984,0.0526194 0.0390703,0.0770751 0.00169293,0.00323325 0.00162793,0.00228928 0.00251255,0.00609061 0.0272678,-0.0147955 0.0464016,-0.0260271 0.053911,-0.0306876l0.0192158 -0.00946234c-0.0126617,-0.028681 -0.0232856,-0.0528229 -0.0415829,-0.0860344 -0.0151092,0.00701197 -0.0616041,0.034243 -0.0731268,0.0430186z"/>
    <path id="_103517392" class="fil0" d="M0.72693 0.0415829l0.0172063 0.0358484c0.00841945,-0.00445702 0.0682261,-0.0392682 0.0716939,-0.0444515 -0.00448529,-0.0116188 -0.0103696,-0.0230765 -0.0157706,-0.0329797 -0.00730307,0.00170141 -0.0293762,0.0156095 -0.0372248,0.0201315 -0.00620931,0.00357523 -0.0287233,0.0173222 -0.0359049,0.0214514z"/>
    <path id="_103517344" class="fil0" d="M0.665272 0.134785c0,0.0136904 0.0410204,0.0756168 0.0444515,0.090336l0.0229408 0c-0.00500249,-0.00746982 -0.060078,-0.0956804 -0.0645237,-0.0989391 -0.000698088,0.00145553 -0.00286866,0.00670956 -0.00286866,0.00860316z"/>
    <path id="_103517296" class="fil0" d="M0.692517 0.127617c0,0.00750091 0.0102226,0.0235852 0.0152788,0.0334715 0.00601995,0.0117742 0.0279433,0.0501578 0.0291699,0.0554287l0.0215079 0 -0.0230228 -0.0371993c-0.00524838,-0.00873034 -0.0350429,-0.0569408 -0.040068,-0.0603041 -0.000698088,0.0014527 -0.00286583,0.00670956 -0.00286583,0.00860316z"/>
    <path id="_103517248" class="fil0" d="M0.728363 0.0975034c0,0.00676891 0.0223106,0.0485496 0.0269682,0.0562003 0.0244105,0.0400906 0.0208437,0.0418711 0.0418598,0.0413059 -0.0189162,-0.0305237 -0.0385955,-0.0613074 -0.0568984,-0.0922267 -0.00303824,-0.00513533 -0.00515511,-0.00960083 -0.00762809,-0.0138826 -0.00399352,0 -0.00430158,0.00474248 -0.00430158,0.00860316z"/>
    <path id="_103517200" class="fil0" d="M0.712592 0.114713c0,0.00998237 0.0403421,0.0745541 0.0430158,0.0860316l0.0215079 0 -0.0301139 -0.0473174c-0.00579385,-0.00866816 -0.0242211,-0.0383581 -0.031544,-0.0473202 -0.000698088,0.00145553 -0.00286583,0.00670956 -0.00286583,0.00860598z"/>
    <path id="_103517152" class="fil0" d="M0.639463 0.150558c0,0.00584472 0.00645802,0.0177461 0.00920798,0.0223388l0.0338078 0.0636956 0.020075 0 -0.0559007 -0.0889228c-0.000859185,-0.00127747 -0.000582211,-0.000963757 -0.00175511,-0.00254647 -0.00121529,-0.00164489 -0.00152901,-0.00197273 -0.00256908,-0.00316825 -0.00091571,0.00393699 -0.00286583,0.00582776 -0.00286583,0.00860316z"/>
    <path id="_103532968" class="fil0" d="M0.652367 0.240029c0.00537273,0.000610474 0.0156349,0.00255212 0.019716,0.000864838l-0.0384316 -0.0638878c-0.0035074,-0.00533317 -0.00985237,-0.0185968 -0.0156971,-0.0207109 -0.00370241,0.0158836 0.00190208,0.0202022 0.0138431,0.0435104 0.00452768,0.00883491 0.0192864,0.0344748 0.0205696,0.0402234z"/>
    <path id="_103532920" class="fil0" d="M0.624613 0.239461c0.00331521,0.00163076 0.0124554,0.00148379 0.015536,0 -0.000910058,-0.00414048 -0.00183142,-0.00464073 -0.00451072,-0.00906666l-0.0151544 -0.025476c-0.00444572,-0.00752917 -0.0183396,-0.0323805 -0.0254731,-0.0342854 -0.000245885,0.0110507 -0.00361197,0.00829509 0.00186534,0.0196397l0.0177094 0.0324795c0.00207165,0.00408113 0.00719285,0.0135972 0.0100276,0.0167089z"/>
    <path id="_103532872" class="fil0" d="M0.593578 0.239959l0.0153636 -0.000497423c-0.0066389,-0.0133032 -0.0186279,-0.0319481 -0.0253884,-0.0430327 -0.00254929,-0.00383524 -0.00552535,-0.0112514 -0.0100502,-0.0128906 -0.00456442,0.0195917 0.0103922,0.0343504 0.020075,0.0564208z"/>
    <path id="_103532608" class="fil0" d="M0.554514 0.222252c0.00372502,0.0068113 0.00833749,0.013812 0.0118194,0.0198941l0.0124073 -0.00268495c-0.00237689,-0.00735395 -0.0199732,-0.0355799 -0.0263521,-0.0401499 0.00333499,0.00709676 0.00252668,0.0148209 0.00212535,0.0229408z"/>
   </g>
   <path id="_103517488" class="fil2" d="M0.532045 0.396695l-0.0693396 0 -0.0447483 -0.0389912c-0.00767897,-0.00664455 -0.0135519,-0.0118138 -0.0176133,-0.0155077 -0.00406135,-0.0036911 -0.00734547,-0.00679152 -0.00985802,-0.00930407 0.000146966,0.00339717 0.000296758,0.00690457 0.000443724,0.0105222 0.000146966,0.00362045 0.000220449,0.00720133 0.000220449,0.0107455l0 0.0425353 -0.0460766 0 0 -0.148207 0.0460766 0 0 0.0343391c0,0.00457855 -7.34829e-005,0.0090808 -0.000220449,0.0135124 -0.000146966,0.00443159 -0.000370241,0.00856641 -0.000664173,0.0124045 0.00295345,-0.00265669 0.00653433,-0.00594364 0.0107426,-0.00985802 0.00421114,-0.00391438 0.00971105,-0.00867664 0.0165054,-0.0142868l0.0427558 -0.0361112 0.0664597 0 -0.0567119 0.0425353c-0.00487531,0.0036911 -0.00919385,0.00694131 -0.0129613,0.00974779 -0.00376459,0.00280648 -0.00712502,0.00524272 -0.0100785,0.00730873 -0.00295345,0.00206883 -0.00564971,0.00391438 -0.00808595,0.00553948 -0.00243624,0.0016251 -0.00483857,0.0031739 -0.00720133,0.00465204 0.00428462,0.00295345 0.00945386,0.00664455 0.0155077,0.0110761 0.00605386,0.00443159 0.0138826,0.0105589 0.0234835,0.0183877l0.0613639 0.0489594zm0.187192 -0.0381066l-0.029461 0.0381066 -0.142667 0 0 -0.148207 0.171687 0 -0.0296871 0.0385475 -0.0959235 0 0 0.0177207 0.117414 0 -0.0263634 0.033675 -0.091051 0 0 0.0201569 0.126052 0zm0.153079 -0.0509491c0.0181672,0 0.0319736,0.0033576 0.0414274,0.0100785 0.00945104,0.00672086 0.0141766,0.0168728 0.0141766,0.0304615 0,0.007532 -0.00118138,0.0143235 -0.00354414,0.0203802 -0.00236276,0.00605386 -0.00613017,0.0111496 -0.0112994,0.0152845 -0.00516642,0.00413483 -0.0117771,0.00731155 -0.0198263,0.00952735 -0.00804921,0.00221297 -0.017684,0.00332369 -0.0289099,0.00332369l-0.138012 0 0.0294638 -0.0381066 0.112093 0c0.005466,0 0.00945386,-0.00084788 0.0119636,-0.00254647 0.00251255,-0.00169859 0.00376459,-0.0044655 0.00376459,-0.0083064 0,-0.0038409 -0.00125204,-0.00657107 -0.00376459,-0.00819617 -0.00250972,-0.0016251 -0.00649759,-0.00243907 -0.0119636,-0.00243907l-0.0806362 0c-0.00960083,0 -0.0178705,-0.00103159 -0.0248118,-0.00310041 -0.00694131,-0.002066 -0.0127012,-0.00494597 -0.0172798,-0.0086399 -0.00457855,-0.0036911 -0.00797572,-0.00815943 -0.0101887,-0.0134022 -0.00221579,-0.00524272 -0.00332369,-0.0110394 -0.00332369,-0.01739 0,-0.00694131 0.00121812,-0.0132552 0.00365436,-0.0189416 0.00243624,-0.00568645 0.00620366,-0.0105222 0.0112994,-0.0145101 0.00509576,-0.00398786 0.0116668,-0.00708828 0.019716,-0.00930407 0.00804921,-0.00221579 0.0176868,-0.00332369 0.0289099,-0.00332369l0.128708 0 -0.0294638 0.0385475 -0.102788 0c-0.00531903,0 -0.00926733,0.000737656 -0.0118534,0.00221579 -0.00258321,0.00147531 -0.00387481,0.00413483 -0.00387481,0.0079729 0,0.0038409 0.0012916,0.00653716 0.00387481,0.00808878 0.00258603,0.00154879 0.00653433,0.00232602 0.0118534,0.00232602l0.0806362 0zm0.255868 0.0890557l-0.0456329 0 0 -0.0571556 -0.088171 0 0 0.0571556 -0.0460766 0 0 -0.148207 0.0460766 0 0 0.0525036 0.088171 0 0 -0.0525036 0.0456329 0 0 0.148207zm0.0908306 0l0.0276889 -0.0381066 0.0372191 0c0.00442876,0 0.00904405,0 0.0138431,0 0.00480183,0 0.0089734,0.000149792 0.0125175,0.000443724 -0.002066,-0.00265669 -0.00446833,-0.00601712 -0.0071985,-0.0100785 -0.002733,-0.00406135 -0.00535295,-0.0078655 -0.0078655,-0.0114096l-0.0265839 -0.0392116 -0.0695601 0.0983626 -0.0542756 0 0.0950389 -0.134027c0.00310041,-0.00428179 0.00701479,-0.00812269 0.0117403,-0.0115199 0.00472552,-0.00339717 0.0107059,-0.00509576 0.017944,-0.00509576 0.00694131,0 0.012738,0.00158836 0.01739,0.00476226 0.00465204,0.00317672 0.00860316,0.00712784 0.0118505,0.0118534l0.0925998 0.134027 -0.172349 0zm0.184312 -0.148207l0.0666801 0.0983597 0.0695629 -0.0983597 0.0540524 0 -0.0948156 0.134027c-0.00325021,0.00428179 -0.00723807,0.00812269 -0.0119636,0.0115199 -0.00472552,0.00339717 -0.0106324,0.00509576 -0.0177207,0.00509576 -0.00694131,0 -0.0127408,-0.00158836 -0.01739,-0.00476509 -0.00465204,-0.0031739 -0.00860316,-0.00712502 -0.0118534,-0.0118505l-0.0928203 -0.134027 0.0562681 0z"/>
   <path id="_103532824" class="fil2" d="M0.359343 0.462352l0.00349892 0c0.00436093,0 0.00743591,-0.00059069 0.00925037,-0.0017862 0.00180033,-0.00119551 0.00270474,-0.00320781 0.00270474,-0.00601995 0,-0.00308628 -0.00082527,-0.00524272 -0.00249559,-0.00648911 -0.0016675,-0.00124921 -0.00482161,-0.00186816 -0.00945952,-0.00186816l-0.00349892 0 0 0.0161634zm0 0.0249164l0.00315694 0c0.00320499,0 0.00561014,-0.000132835 0.00720133,-0.000381546 0.00158836,-0.000262843 0.00283757,-0.000709393 0.00377024,-0.00135378 0.00113051,-0.000734829 0.00199817,-0.00174663 0.0026143,-0.00299584 0.000618952,-0.00126052 0.000921363,-0.00263973 0.000921363,-0.00416592 0,-0.0017862 -0.000370241,-0.00336326 -0.0011192,-0.0046916 -0.000748961,-0.00133965 -0.00181164,-0.00237689 -0.00319086,-0.00311172 -0.000867664,-0.000449376 -0.00186816,-0.000763092 -0.00298454,-0.000975062 -0.00111638,-0.000195012 -0.00260017,-0.000302411 -0.0044542,-0.000302411l-0.00275844 0 -0.00315694 0 0 0.0179779zm-0.00898753 0.00764788l0 -0.0563755 0.0142189 0c0.00406135,0 0.00705719,0.000223275 0.00898753,0.00065852 0.0019473,0.000432419 0.00358936,0.00115594 0.00495445,0.00215362 0.00174946,0.00128878 0.00310324,0.00297041 0.00406135,0.00504771 0.000960931,0.00208861 0.00144705,0.00437506 0.00144705,0.00689892 0,0.00300997 -0.000698088,0.0055197 -0.00207731,0.00752917 -0.00139335,0.00202361 -0.00340283,0.00342826 -0.00604538,0.00421679 0.00328412,0.000514381 0.00586168,0.0020123 0.00774114,0.00449659 0.00187947,0.00247016 0.00282627,0.00559883 0.00282627,0.00936907 0,0.00227232 -0.000395677,0.00444007 -0.00119551,0.00650324 -0.000788528,0.00205187 -0.00191904,0.0037985 -0.00338022,0.00523142 -0.00154879,0.00156293 -0.00345652,0.002668 -0.00574297,0.00331238 -0.00228645,0.000644389 -0.00611039,0.000958104 -0.0114973,0.000958104l-0.0142981 0zm0.0759955 -0.0323268l0.00167032 0c0.00484987,0 0.00806899,-0.000565253 0.00965735,-0.00169576 0.00159119,-0.00113051 0.00239385,-0.00312585 0.00239385,-0.00600582 0,-0.00310041 -0.000856359,-0.00528229 -0.00256342,-0.00655694 -0.00170707,-0.00127465 -0.00487531,-0.0019049 -0.00948778,-0.0019049l-0.00167032 0 0 0.0161634zm-0.000551122 0.00709676l0 0.0252301 -0.00859468 0 0 -0.0563755 0.0127747 0c0.0037448,0 0.00664738,0.000248711 0.00872469,0.000734829 0.00206317,0.000486118 0.00382394,0.00128878 0.00528229,0.00241928 0.00174663,0.00136509 0.00308911,0.00312868 0.00404721,0.00528229 0.000946799,0.00215644 0.00141879,0.0045079 0.00141879,0.00708262 0,0.0045079 -0.00109094,0.00804356 -0.00326999,0.0106042 -0.00218188,0.00255212 -0.005401,0.00408961 -0.00966018,0.00460116l0.0193967 0.0256512 -0.01033 0 -0.0187636 -0.0252301 -0.00102593 0zm0.0688874 0.00307498l0.0157169 0 -0.00578254 -0.0128539c-0.000327847,-0.000813965 -0.00068113,-0.00176076 -0.00103724,-0.00282344 -0.000353283,-0.0010655 -0.000723524,-0.00224688 -0.00107681,-0.0035611 -0.000302411,0.00123508 -0.000630258,0.00237689 -0.000986367,0.00344239 -0.000341978,0.0010655 -0.000695262,0.00204904 -0.00105137,0.00294214l-0.00578254 0.0128539zm0.0253375 0.0221551l-0.00638736 -0.0145072 -0.0223416 0 -0.00654281 0.0145072 -0.00962061 0 0.0272961 -0.0585829 0.0272678 0.0585829 -0.00967149 0zm0.0331549 -0.0112881l0.00730873 -0.00337739c0.000695262,0.00250972 0.00196991,0.00442876 0.00382111,0.00574297 0.0018399,0.00132835 0.00420549,0.00198404 0.00708545,0.00198404 0.002733,0 0.00488944,-0.000763092 0.00650324,-0.00227232 0.00160532,-0.00151205 0.00240515,-0.00353566 0.00240515,-0.00607082 0,-0.00331238 -0.00274713,-0.00626866 -0.0082527,-0.00885752 -0.000774397,-0.000381546 -0.00136509,-0.000669825 -0.0017749,-0.000842228 -0.00621496,-0.00303541 -0.0103526,-0.00576841 -0.0124158,-0.00822726 -0.00206317,-0.00245603 -0.00310324,-0.00545187 -0.00310324,-0.00898753 0,-0.00459834 0.00156575,-0.0083177 0.0046803,-0.0111694 0.00311172,-0.0028517 0.00721263,-0.00427049 0.0122717,-0.00427049 0.00415461,0 0.00763657,0.000799834 0.0104346,0.00240515 0.002798,0.00160249 0.00473117,0.00390025 0.00580798,0.00689892l-0.00714763 0.00370524c-0.00113051,-0.0017749 -0.00236559,-0.00307498 -0.00371937,-0.00388894 -0.00135378,-0.000828096 -0.00290258,-0.0012379 -0.00465204,-0.0012379 -0.00245885,0 -0.00442876,0.000644389 -0.00587298,0.00193317 -0.00146118,0.00127465 -0.00218188,0.00299584 -0.00218188,0.00515228 0,0.00338869 0.00319368,0.00655694 0.00956691,0.00947365 0.000486118,0.000237406 0.000867664,0.000421114 0.00115594,0.000539817 0.00557057,0.00257473 0.00939451,0.00508445 0.0114718,0.00752917 0.00207731,0.00245885 0.00311455,0.0055197 0.00311455,0.00918537 0,0.00533599 -0.00168163,0.00958104 -0.00504771,0.012721 -0.00336326,0.00313998 -0.00790789,0.00471704 -0.0136396,0.00471704 -0.00479617,0 -0.00872469,-0.00110224 -0.0117997,-0.00330956 -0.00306085,-0.00220731 -0.00507315,-0.00536425 -0.00601995,-0.00947647zm0.0646961 0l0.0073059 -0.00337739c0.000698088,0.00250972 0.00197273,0.00442876 0.00382394,0.00574297 0.0018399,0.00132835 0.00420549,0.00198404 0.00708262,0.00198404 0.00273583,0 0.00488944,-0.000763092 0.00650607,-0.00227232 0.00160249,-0.00151205 0.00240515,-0.00353566 0.00240515,-0.00607082 0,-0.00331238 -0.00274713,-0.00626866 -0.0082527,-0.00885752 -0.000774397,-0.000381546 -0.00136791,-0.000669825 -0.0017749,-0.000842228 -0.00621496,-0.00303541 -0.0103554,-0.00576841 -0.0124186,-0.00822726 -0.00206317,-0.00245603 -0.00310041,-0.00545187 -0.00310041,-0.00898753 0,-0.00459834 0.00156293,-0.0083177 0.00467747,-0.0111694 0.00311455,-0.0028517 0.00721546,-0.00427049 0.0122745,-0.00427049 0.00415179,0 0.00763657,0.000799834 0.0104346,0.00240515 0.002798,0.00160249 0.00473117,0.00390025 0.00580798,0.00689892l-0.00714763 0.00370524c-0.00113051,-0.0017749 -0.00236559,-0.00307498 -0.00371937,-0.00388894 -0.00135378,-0.000828096 -0.0029054,-0.0012379 -0.00465204,-0.0012379 -0.00245885,0 -0.00442876,0.000644389 -0.00587298,0.00193317 -0.00146118,0.00127465 -0.00218188,0.00299584 -0.00218188,0.00515228 0,0.00338869 0.00319368,0.00655694 0.00956409,0.00947365 0.000486118,0.000237406 0.000867664,0.000421114 0.00115877,0.000539817 0.00557057,0.00257473 0.00939451,0.00508445 0.0114718,0.00752917 0.00207731,0.00245885 0.00311455,0.0055197 0.00311455,0.00918537 0,0.00533599 -0.00168163,0.00958104 -0.00504771,0.012721 -0.00336326,0.00313998 -0.00791072,0.00471704 -0.0136396,0.00471704 -0.00479617,0 -0.00872469,-0.00110224 -0.0117997,-0.00330956 -0.00306367,-0.00220731 -0.00507315,-0.00536425 -0.00601995,-0.00947647zm0.0918848 0.0112881l0 -0.0563755 0.0091458 0 0 0.0563755 -0.0091458 0zm0.0437478 0l0 -0.0585829 0.0358229 0.0344437c0.000972236,0.000972236 0.0019586,0.00200948 0.00297041,0.00311455 0.000997672,0.00110224 0.00204904,0.00235145 0.00315411,0.00373067l0 -0.0390816 0.00843641 0 0 0.0585829 -0.0365182 -0.0350853c-0.000972236,-0.000960931 -0.00191904,-0.0019586 -0.00282627,-0.00300997 -0.000921363,-0.00105137 -0.0017749,-0.00215644 -0.00260299,-0.00331238l0 0.0392003 -0.00843641 0zm0.0938942 -0.00827814l0.00771571 0c0.00423092,0 0.00741047,-0.000276974 0.00952735,-0.000842228 0.00212818,-0.000565253 0.00396808,-0.00152336 0.005531,-0.0028517 0.00212818,-0.00182577 0.00373067,-0.00408678 0.00479617,-0.00680565 0.0010655,-0.00270756 0.00160249,-0.00586168 0.00160249,-0.00944821 0,-0.00360066 -0.000536991,-0.00674347 -0.00160249,-0.00944821 -0.0010655,-0.00272169 -0.002668,-0.00497988 -0.00479617,-0.00680848 -0.00159119,-0.00132552 -0.00349609,-0.00228645 -0.00571754,-0.0028517 -0.00221862,-0.000565253 -0.00570058,-0.000839401 -0.0104318,-0.000839401l-0.00331238 0 -0.00331238 0 0 0.0398956zm-0.0091458 0.00827814l0 -0.0563755 0.0123395 0c0.00804356,0 0.0136933,0.000406982 0.0169774,0.00120964 0.00327282,0.000813965 0.00613865,0.00216775 0.00860881,0.00405852 0.00325869,0.00249842 0.00572884,0.0056921 0.00741047,0.00959518 0.00168446,0.00390307 0.00252386,0.00835727 0.00252386,0.0133654 0,0.00500532 -0.000839401,0.00943408 -0.00252386,0.0132976 -0.00168163,0.00386351 -0.00415179,0.00705719 -0.00741047,0.00958104 -0.00247016,0.00189077 -0.00527099,0.00324455 -0.0084251,0.00406135 -0.00313998,0.000799834 -0.00804073,0.00120682 -0.0146909,0.00120682l-0.00247016 0 -0.0123395 0zm0.0795453 -0.0563755l0.00906666 0 0 0.0342346c0,0.00507032 0.00117007,0.00889426 0.00352153,0.0114436 0.00235145,0.00256342 0.00586168,0.00383807 0.0105391,0.00383807 0.0046379,0 0.008134,-0.00127465 0.0104883,-0.00383807 0.00235145,-0.00254929 0.00352153,-0.00637323 0.00352153,-0.0114436l0 -0.0342346 0.0091458 0 0 0.035074c0,0.00762244 -0.00191904,0.0133372 -0.00577124,0.0171244 -0.00384938,0.00378437 -0.00965735,0.00567514 -0.0174098,0.00567514 -0.00775528,0 -0.013535,-0.00189077 -0.0173589,-0.00566384 -0.00382677,-0.00377024 -0.00574297,-0.00948778 -0.00574297,-0.0171357l0 -0.035074zm0.0771006 0.0450874l0.0073059 -0.00337739c0.000695262,0.00250972 0.00196991,0.00442876 0.00382394,0.00574297 0.0018399,0.00132835 0.00420549,0.00198404 0.00708262,0.00198404 0.002733,0 0.00488944,-0.000763092 0.00650607,-0.00227232 0.00160249,-0.00151205 0.00240515,-0.00353566 0.00240515,-0.00607082 0,-0.00331238 -0.00274713,-0.00626866 -0.00825553,-0.00885752 -0.000774397,-0.000381546 -0.00136509,-0.000669825 -0.00177207,-0.000842228 -0.00621496,-0.00303541 -0.0103554,-0.00576841 -0.0124186,-0.00822726 -0.00206317,-0.00245603 -0.00310041,-0.00545187 -0.00310041,-0.00898753 0,-0.00459834 0.00156293,-0.0083177 0.00467747,-0.0111694 0.00311455,-0.0028517 0.00721546,-0.00427049 0.0122745,-0.00427049 0.00415179,0 0.00763375,0.000799834 0.0104346,0.00240515 0.002798,0.00160249 0.00472834,0.00390025 0.00580798,0.00689892l-0.00715046 0.00370524c-0.00112768,-0.0017749 -0.00236276,-0.00307498 -0.00371654,-0.00388894 -0.00135378,-0.000828096 -0.0029054,-0.0012379 -0.00465486,-0.0012379 -0.00245603,0 -0.00442876,0.000644389 -0.00587298,0.00193317 -0.00145835,0.00127465 -0.00218188,0.00299584 -0.00218188,0.00515228 0,0.00338869 0.00319368,0.00655694 0.00956691,0.00947365 0.000486118,0.000237406 0.000867664,0.000421114 0.00115594,0.000539817 0.0055734,0.00257473 0.00939734,0.00508445 0.0114718,0.00752917 0.00207731,0.00245885 0.00311455,0.0055197 0.00311455,0.00918537 0,0.00533599 -0.00168163,0.00958104 -0.00504489,0.012721 -0.00336326,0.00313998 -0.00791072,0.00471704 -0.0136424,0.00471704 -0.00479617,0 -0.00872469,-0.00110224 -0.0117997,-0.00330956 -0.00306085,-0.00220731 -0.00507032,-0.00536425 -0.00601712,-0.00947647zm0.0861418 -0.0372813l0 0.0485694 -0.0091458 0 0 -0.0485694 -0.014982 0 0 -0.00780615 0.0390307 0 0 0.00780615 -0.0149029 0zm0.0524725 0.0162426l0.00167032 0c0.00484987,0 0.00806899,-0.000565253 0.00965735,-0.00169576 0.00159119,-0.00113051 0.00239385,-0.00312585 0.00239385,-0.00600582 0,-0.00310041 -0.000856359,-0.00528229 -0.00256342,-0.00655694 -0.00170707,-0.00127465 -0.00487531,-0.0019049 -0.00948778,-0.0019049l-0.00167032 0 0 0.0161634zm-0.000551122 0.00709676l0 0.0252301 -0.00859468 0 0 -0.0563755 0.0127747 0c0.0037448,0 0.00664738,0.000248711 0.00872469,0.000734829 0.00206317,0.000486118 0.00382394,0.00128878 0.00528229,0.00241928 0.00174663,0.00136509 0.00308911,0.00312868 0.00404721,0.00528229 0.000946799,0.00215644 0.00141879,0.0045079 0.00141879,0.00708262 0,0.0045079 -0.00109094,0.00804356 -0.00326999,0.0106042 -0.00218188,0.00255212 -0.005401,0.00408961 -0.00966018,0.00460116l0.0193967 0.0256512 -0.01033 0 -0.0187636 -0.0252301 -0.00102593 0zm0.0571386 0.0252301l0 -0.0563755 0.0091458 0 0 0.0563755 -0.0091458 0zm0.0437478 0l0 -0.0563755 0.031462 0 0 0.00780615 -0.0223134 0 0 0.0141144 0.0223134 0 0 0.00804073 -0.0223134 0 0 0.0182153 0.0223134 0 0 0.008199 -0.031462 0zm0.0601486 -0.0112881l0.00730873 -0.00337739c0.000695262,0.00250972 0.00196991,0.00442876 0.00382111,0.00574297 0.0018399,0.00132835 0.00420831,0.00198404 0.00708545,0.00198404 0.002733,0 0.00488944,-0.000763092 0.00650324,-0.00227232 0.00160532,-0.00151205 0.00240515,-0.00353566 0.00240515,-0.00607082 0,-0.00331238 -0.00274713,-0.00626866 -0.0082527,-0.00885752 -0.000774397,-0.000381546 -0.00136509,-0.000669825 -0.00177207,-0.000842228 -0.00621779,-0.00303541 -0.0103554,-0.00576841 -0.0124186,-0.00822726 -0.00206317,-0.00245603 -0.00310324,-0.00545187 -0.00310324,-0.00898753 0,-0.00459834 0.00156575,-0.0083177 0.0046803,-0.0111694 0.00311172,-0.0028517 0.00721263,-0.00427049 0.0122745,-0.00427049 0.00415179,0 0.00763375,0.000799834 0.0104318,0.00240515 0.002798,0.00160249 0.00473117,0.00390025 0.00580798,0.00689892l-0.00714763 0.00370524c-0.00113051,-0.0017749 -0.00236559,-0.00307498 -0.00371937,-0.00388894 -0.00135378,-0.000828096 -0.00290258,-0.0012379 -0.00465204,-0.0012379 -0.00245603,0 -0.00442876,0.000644389 -0.00587298,0.00193317 -0.00146118,0.00127465 -0.00218188,0.00299584 -0.00218188,0.00515228 0,0.00338869 0.00319368,0.00655694 0.00956691,0.00947365 0.000486118,0.000237406 0.000867664,0.000421114 0.00115594,0.000539817 0.00557057,0.00257473 0.00939451,0.00508445 0.0114718,0.00752917 0.00207731,0.00245885 0.00311455,0.0055197 0.00311455,0.00918537 0,0.00533599 -0.00168163,0.00958104 -0.00504771,0.012721 -0.00336326,0.00313998 -0.00790789,0.00471704 -0.0136396,0.00471704 -0.00479617,0 -0.00872469,-0.00110224 -0.0117997,-0.00330956 -0.00306085,-0.00220731 -0.00507315,-0.00536425 -0.00601995,-0.00947647z"/>
   <g>
    <path id="_103532680" class="fil0" d="M1.49396 0.46818c-0.00325586,-0.000308063 -0.00856359,-0.000141313 -0.0119749,-9.04405e-005 -0.00157423,2.26101e-005 -0.00139335,0.000655694 -0.00289975,0.00320499 -0.00532186,0.00901014 -0.00514946,0.00710523 -0.00256342,0.0116188l0.00450224 0.00766766 0.0125797 5.65253e-006c0.000695262,-0.000180881 0.00293932,-0.0045729 0.00347348,-0.00549144 0.000474813,-0.000819617 0.0031315,-0.00514381 0.0031315,-0.00571471 2.82627e-006,-0.000556775 -0.00536425,-0.00979301 -0.00624888,-0.0112005z"/>
    <path id="_103532632" class="fil0" d="M1.41619 0.468126c-0.000616126,0.000884622 -0.00637888,0.0107766 -0.00636193,0.0112344 1.13051e-005,0.000387199 0.00570906,0.0102933 0.00631671,0.0111129 0.00150075,0.000240233 0.0117149,0.00025719 0.0130743,-3.10889e-005 0.000579385,-0.000975062 0.00629692,-0.0102707 0.00616974,-0.0112655 -5.65253e-005,-0.000463508 -0.00539817,-0.00980432 -0.00625453,-0.0110479l-0.0129443 -2.82627e-006z"/>
    <path id="_106822160" class="fil0" d="M1.39665 0.468242c-0.0008931,-0.000293932 -0.00942843,-0.000138487 -0.0116103,-0.000135661 -0.00167598,2.82627e-006 -0.00146118,0.000248711 -0.00211405,0.00148096 -0.000562427,0.00106833 -0.00546317,0.00909493 -0.00545187,0.00979019 8.4788e-006,0.000607647 0.00468878,0.00844771 0.00544056,0.00978171 0.000830922,0.00147531 0.000669825,0.0014414 0.00263125,0.00143292 0.00274431,-1.13051e-005 0.00947647,0.000161097 0.0113588,-0.000135661 0.00099202,-0.00238254 0.00625453,-0.0100389 0.00612169,-0.0112712 -1.97839e-005,-0.000178055 -0.00566384,-0.0104968 -0.00637606,-0.0109433z"/>
    <path id="_106822136" class="fil0" d="M1.35127 0.468197c-0.00718154,0.0133569 -0.00729177,0.00945669 -0.00392286,0.0153579 0.000737656,0.00129443 0.00141031,0.00251255 0.00223558,0.00392003 0.0016138,0.00276126 0.00132269,0.00305237 0.0028941,0.00313433 0.00282344,0.00014414 0.00918537,0.000203491 0.0118675,-0.000107398 0.000833749,-0.00113051 0.00640715,-0.0106296 0.00632801,-0.0113107 -4.2394e-005,-0.000375893 -0.00592951,-0.0105391 -0.00637606,-0.0110705l-0.0130263 7.63092e-005z"/>
    <path id="_106822880" class="fil0" d="M1.44844 0.490287l0.0130913 0.000217623c0.000621779,-0.000836575 0.00637041,-0.0107539 0.00631105,-0.011322 -4.2394e-005,-0.000384372 -0.00597755,-0.0105618 -0.00636193,-0.0110592l-0.0129584 -1.13051e-005c-0.00152618,0.00298736 -0.00554796,0.00920798 -0.00636758,0.0112712l0.00628562 0.0109037z"/>
   </g>
   <path id="_103532728" class="fil2" d="M0.972756 0.146844c0,0.00242776 0.000452203,0.004734 0.00135943,0.00694414 0.000904405,0.00219318 0.00221862,0.00414331 0.00391438,0.00583907 0.00170707,0.00172968 0.00366849,0.0030665 0.00590125,0.00401895 0.0022384,0.000952452 0.00455029,0.00143009 0.00693283,0.00143009 0.00245037,0 0.00476226,-0.00046916 0.00695262,-0.00138204 0.00218753,-0.00091571 0.00417157,-0.00226667 0.00593799,-0.004067 0.00169576,-0.00169576 0.00300432,-0.00364588 0.00392568,-0.00583907 0.00091571,-0.00221014 0.00138204,-0.00451637 0.00138204,-0.00694414 0,-0.00242776 -0.000452203,-0.00473117 -0.00135943,-0.00689044 -0.000907232,-0.00216775 -0.00225253,-0.00414331 -0.00401895,-0.00593233 -0.00169576,-0.00175229 -0.00364588,-0.00308063 -0.0058532,-0.00399634 -0.00219601,-0.000918537 -0.00451637,-0.00138204 -0.00696675,-0.00138204 -0.00236841,0 -0.00464921,0.000463508 -0.00686218,0.00139052 -0.00221014,0.000929842 -0.00420831,0.00225819 -0.0059719,0.00398786 -0.00169576,0.00164489 -0.00300997,0.00358653 -0.00391438,0.00581646 -0.000907232,0.00221862 -0.00135943,0.00455312 -0.00135943,0.00700632zm0.0118449 0.0237491c-0.00577124,-0.00140748 -0.0103809,-0.00429593 -0.0138657,-0.00867664 -0.00348196,-0.00437789 -0.00522577,-0.0094793 -0.00522577,-0.0153099 0,-0.00317955 0.000652868,-0.00625453 0.00193599,-0.0092532 0.0012916,-0.00299584 0.00313998,-0.00564405 0.00552253,-0.00793333 0.00242211,-0.0023345 0.00516359,-0.00411222 0.00823009,-0.00534164 0.00305802,-0.00122095 0.00628562,-0.00183425 0.00966583,-0.00183425 0.00343391,0 0.00671238,0.0006133 0.00980997,0.00185686 0.00308911,0.00123225 0.00582211,0.00300715 0.00818204,0.00531903 0.00247298,0.00240515 0.00432701,0.00508728 0.0055847,0.00803508 0.0012379,0.00294214 0.00186816,0.00614713 0.00186816,0.00959518 0,0.00561862 -0.00175229,0.0105335 -0.00527099,0.0147503 -0.0035187,0.00420549 -0.00834314,0.00713067 -0.0144592,0.00879252 0.00285736,0.00127465 0.00537556,0.00219601 0.00756874,0.00276409 0.00218753,0.00056808 0.00428745,0.000845054 0.00630823,0.000845054 0.000661346,0 0.00138204,-4.52203e-005 0.00215927,-0.000138487 0.000788528,-9.04405e-005 0.00163641,-0.000220449 0.00256625,-0.000406982l0.000282627 0.000723524 -0.00646932 0.00560731c-0.000223275,4.52203e-005 -0.000443724,7.06567e-005 -0.000652868,8.4788e-005 -0.000197839,8.4788e-006 -0.000508728,2.26101e-005 -0.000952452,2.26101e-005 -0.00310324,0 -0.0065852,-0.000813965 -0.0104515,-0.00241928 -0.00386916,-0.0016138 -0.00798138,-0.0039709 -0.0123367,-0.00708262zm0.058727 -0.00384372c-0.00156858,0.00149792 -0.00312585,0.00258886 -0.00468595,0.00328412 -0.00155445,0.000686783 -0.0032276,0.00103441 -0.00501662,0.00103441 -0.00342544,0 -0.00611604,-0.000989193 -0.0080916,-0.0029591 -0.00197556,-0.00197556 -0.00296475,-0.00466899 -0.00296475,-0.00809725l0 -0.0208578 0.00633084 0 0 0.0192525c0,0.00254364 0.000536991,0.00442593 0.0016138,0.00563275 0.00108246,0.00122095 0.00275561,0.00182577 0.00501662,0.00182577 0.0016138,0 0.00301845,-0.000313716 0.0042394,-0.000941147 0.00120682,-0.000616126 0.00239102,-0.00166184 0.00355827,-0.00311172l0 -0.0226582 0.00625453 0 0 0.0314394 -0.00625453 0 0 -0.00384372zm0.0296701 -0.00255777l0 -0.0092108c-0.00421679,0.00131421 -0.00713067,0.00253516 -0.00871903,0.00363458 -0.00160532,0.0011192 -0.00240515,0.00240515 -0.00240515,0.00388046 0,0.00128878 0.000415461,0.00228928 0.00124356,0.00298736 0.000822444,0.000706567 0.00198404,0.0010542 0.00348196,0.0010542 0.00111355,0 0.00220449,-0.000195012 0.00326434,-0.000593516 0.00106833,-0.000406982 0.00211405,-0.000983541 0.00313433,-0.00175229zm0.000245885 0.00380981c-0.00159119,0.00111638 -0.00310324,0.00191621 -0.00451637,0.00240515 -0.00142161,0.000486118 -0.00294214,0.000732003 -0.00457855,0.000732003 -0.00281214,0 -0.00500249,-0.000675478 -0.00659368,-0.00202078 -0.00159684,-0.0013453 -0.00238254,-0.00320499 -0.00238254,-0.00556492 0,-0.00221862 0.000856359,-0.00416874 0.00258886,-0.0058532 0.00171554,-0.00167315 0.00432136,-0.00308911 0.00778354,-0.00424788l0.00745287 -0.00248994c2.54364e-005,-0.000183707 3.67415e-005,-0.000358936 4.80465e-005,-0.000545469 1.41313e-005,-0.000183707 2.26101e-005,-0.000438071 2.26101e-005,-0.000777223 0,-0.00189077 -0.000463508,-0.00325021 -0.00138204,-0.0040783 -0.00091571,-0.000822444 -0.00242776,-0.0012379 -0.00454181,-0.0012379 -0.00174381,0 -0.00354131,0.000370241 -0.00540947,0.00109942 -0.00185968,0.000746134 -0.00371937,0.00183707 -0.00557622,0.00328977l0 -0.00619235c0.0016138,-0.00132269 0.00341696,-0.00231189 0.00541513,-0.00298171 0.00199534,-0.000661346 0.00410939,-0.0010005 0.00636193,-0.0010005 0.00402743,0 0.00696675,0.0008931 0.0088123,0.002668 0.00183707,0.00178055 0.00275561,0.00466051 0.00275561,0.00863425l0 0.0132976c0,0.00111355 9.32668e-005,0.00190208 0.000288279,0.00236841 0.000197839,0.000460681 0.000511554,0.000698088 0.000975062,0.000698088 0.000384372,0 0.00078005,-0.000107398 0.00121247,-0.000305237 0.000415461,-0.000209144 0.00109942,-0.000683957 0.00205187,-0.00143857l0 0.00382111c-0.00113616,0.000975062 -0.00227514,0.00169576 -0.00343674,0.00215927 -0.00116442,0.000466334 -0.00235711,0.000698088 -0.00360914,0.000698088 -0.00121247,0 -0.00210557,-0.000254364 -0.00271039,-0.000754613 -0.000601995,-0.000500249 -0.000952452,-0.0012916 -0.00103159,-0.00238254zm0.0146909 0.00259169l0 -0.0476056 0.00626018 0 0 0.0476056 -0.00626018 0zm0.0142981 -0.0406982c0,-0.000983541 0.000336326,-0.00183425 0.00102028,-0.00250407 0.000675478,-0.000689609 0.00152336,-0.00102311 0.00252103,-0.00102311 0.000989193,0 0.00183425,0.000333499 0.00250972,0.00102311 0.000683957,0.000669825 0.00102311,0.00152053 0.00102311,0.00250407 0,0.0010005 -0.000339152,0.00184555 -0.00102311,0.00252103 -0.000675478,0.000683957 -0.00152053,0.00102311 -0.00250972,0.00102311 -0.000997672,0 -0.00184555,-0.000339152 -0.00252103,-0.00102311 -0.000683957,-0.000675478 -0.00102028,-0.00152053 -0.00102028,-0.00252103zm0.000406982 0.0406982l0 -0.0314394 0.00626018 0 0 0.0314394 -0.00626018 0zm0.031869 -0.000986367c-0.000977888,0.000545469 -0.00203209,0.000946799 -0.00315977,0.00120682 -0.00111355,0.000262843 -0.00232037,0.000392851 -0.00362045,0.000392851 -0.00353283,0 -0.00602843,-0.000836575 -0.007467,-0.00252103 -0.00144422,-0.00167315 -0.00216492,-0.00473682 -0.00216492,-0.00918537l0 -0.0149001 -0.00534164 0 0 -0.0006133 0.0109885 -0.0121473 0.000720698 0 0 0.00731438 0.00983541 0 0 0.00544622 -0.00983541 0 0 0.0144224c0,0.00260299 0.000325021,0.00428745 0.000975062,0.00505337 0.000638736,0.000754613 0.00184555,0.00113899 0.00362045,0.00113899 0.000952452,0 0.00188229,-0.000130008 0.00278953,-0.000370241 0.000904405,-0.000260017 0.00178903,-0.000638736 0.00265952,-0.0011616l0 0.00592386zm0.0133343 -0.00520598l-0.0132382 -0.025247 0.00697805 0 0.00969692 0.0184075 0.00904688 -0.0184075 0.00683957 0 -0.0233421 0.047258 -0.00684239 0 0.0108613 -0.022011zm0.052659 0.00652868l-0.0176189 -0.047942 0.00705154 0 0.0116244 0.0324936 0.0128341 -0.0324936 0.00432136 0 0.0126928 0.0325614 0.0118336 -0.0325614 0.00691305 0 -0.0179327 0.047942 -0.00153466 0 -0.0142218 -0.0366397 -0.0143574 0.0366397 -0.00160532 0zm0.0522407 -0.0410346c0,-0.000983541 0.000339152,-0.00183425 0.00102311,-0.00250407 0.000675478,-0.000689609 0.00152053,-0.00102311 0.00252103,-0.00102311 0.000989193,0 0.00183425,0.000333499 0.00250972,0.00102311 0.000683957,0.000669825 0.00102311,0.00152053 0.00102311,0.00250407 0,0.0010005 -0.000339152,0.00184555 -0.00102311,0.00252103 -0.000675478,0.000683957 -0.00152053,0.00102311 -0.00250972,0.00102311 -0.0010005,0 -0.00184555,-0.000339152 -0.00252103,-0.00102311 -0.000683957,-0.000675478 -0.00102311,-0.00152053 -0.00102311,-0.00252103zm0.000406982 0.0406982l0 -0.0314394 0.00626301 0 0 0.0314394 -0.00626301 0zm0.031869 -0.000986367c-0.000975062,0.000545469 -0.00202926,0.000946799 -0.00315694,0.00120682 -0.00111638,0.000262843 -0.00232319,0.000392851 -0.00362045,0.000392851 -0.00353283,0 -0.00603125,-0.000836575 -0.00746982,-0.00252103 -0.0014414,-0.00167315 -0.00216209,-0.00473682 -0.00216209,-0.00918537l0 -0.0149001 -0.00534164 0 0 -0.0006133 0.0109857 -0.0121473 0.000723524 0 0 0.00731438 0.00983541 0 0 0.00544622 -0.00983541 0 0 0.0144224c0,0.00260299 0.000322194,0.00428745 0.000975062,0.00505337 0.000638736,0.000754613 0.00184555,0.00113899 0.00362045,0.00113899 0.000952452,0 0.00188229,-0.000130008 0.0027867,-0.000370241 0.000907232,-0.000260017 0.00179185,-0.000638736 0.00265952,-0.0011616l0 0.00592386zm0.00520598 0.000986367l0 -0.0476056 0.00625735 0 0 0.0200071c0.0015714,-0.00149792 0.00312585,-0.00258886 0.00468312,-0.00328695 0.00155445,-0.000683957 0.0032276,-0.00103159 0.00501945,-0.00103159 0.00342544,0 0.00611604,0.000986367 0.0080916,0.0029591 0.00197273,0.00197556 0.00296193,0.00468595 0.00296193,0.008134l0 0.0208239 -0.00632801 0 0 -0.0192243c0,-0.00256625 -0.000522859,-0.00444854 -0.00158271,-0.00565536 -0.0010542,-0.00119551 -0.00270474,-0.00179751 -0.00494879,-0.00179751 -0.00165902,0 -0.00311172,0.000313716 -0.00435528,0.000952452 -0.00125204,0.000638736 -0.00242211,0.00165902 -0.00354131,0.0030665l0 0.0226582 -0.00625735 0zm0.0536595 0l0 -0.0476056 0.00680565 0 0 0.0476056 -0.00680565 0zm0.0160956 0l0 -0.0314394 0.00625453 0 0 0.0038409c0.00156858,-0.00149792 0.00312585,-0.00258886 0.0046803,-0.00328695 0.00155727,-0.000683957 0.00323325,-0.00103159 0.00502228,-0.00103159 0.00339717,0 0.00608495,0.000986367 0.00804638,0.0029591 0.00196426,0.00197556 0.00293932,0.00468595 0.00293932,0.008134l0 0.0208239 -0.00626018 0 0 -0.0192243c0,-0.00254364 -0.000536991,-0.00442311 -0.0016138,-0.00562992 -0.00108246,-0.00122095 -0.00275561,-0.00182294 -0.00501662,-0.00182294 -0.00161945,0 -0.00302128,0.000313716 -0.0042394,0.000938321 -0.00120682,0.000616126 -0.00239667,0.00165054 -0.00355827,0.00308063l0 0.0226582 -0.00625453 0zm0.0521305 -0.000986367c-0.000975062,0.000545469 -0.00202926,0.000946799 -0.00315694,0.00120682 -0.00111638,0.000262843 -0.00232319,0.000392851 -0.00362045,0.000392851 -0.00353283,0 -0.00603125,-0.000836575 -0.00746982,-0.00252103 -0.0014414,-0.00167315 -0.00216209,-0.00473682 -0.00216209,-0.00918537l0 -0.0149001 -0.00534164 0 0 -0.0006133 0.0109857 -0.0121473 0.000720698 0 0 0.00731438 0.00983541 0 0 0.00544622 -0.00983541 0 0 0.0144224c0,0.00260299 0.000325021,0.00428745 0.000977888,0.00505337 0.00063591,0.000754613 0.00184273,0.00113899 0.00362045,0.00113899 0.000952452,0 0.00188229,-0.000130008 0.0027867,-0.000370241 0.000907232,-0.000260017 0.00178903,-0.000638736 0.00265952,-0.0011616l0 0.00592386zm0.0326603 -0.00234863c-0.00209144,0.00133682 -0.00424223,0.00234863 -0.00644671,0.00301845 -0.00221579,0.000661346 -0.00449376,0.0010005 -0.00686218,0.0010005 -0.0049601,0 -0.00893383,-0.00153184 -0.0118929,-0.00460964 -0.00296475,-0.00308063 -0.00444007,-0.00717872 -0.00444007,-0.0122999 0,-0.00470291 0.00143009,-0.00851554 0.00427897,-0.0114407 0.00284322,-0.00292801 0.00655977,-0.00438919 0.0111327,-0.00438919 0.00454181,0 0.0081453,0.00148379 0.0107935,0.00445702 0.00265952,0.00297323 0.00398221,0.00698371 0.00398221,0.0120455l0 0.00091571 -0.0235513 0c0.000186534,0.00297323 0.0011616,0.00529925 0.00292801,0.00696957 0.00176076,0.00165902 0.00414331,0.00249559 0.00710523,0.00249559 0.00199817,0 0.00408961,-0.000367415 0.00624888,-0.00109942 0.0021734,-0.000743308 0.0044118,-0.00185968 0.00672369,-0.0033576l0 0.0062941zm-0.0230058 -0.0157593l0.0166411 -3.67415e-005c-0.000206317,-0.00226101 -0.00103441,-0.00408678 -0.00248711,-0.00546883 -0.00144987,-0.00138487 -0.00325869,-0.00207731 -0.00544622,-0.00207731 -0.00240515,0 -0.00434115,0.000638736 -0.00581646,0.00191338 -0.00147531,0.0012916 -0.00243624,0.0031739 -0.00289127,0.00566949zm0.0312642 0.0249475c0,0.00152901 0.000765918,0.00270474 0.00231189,0.00348196 0.00154314,0.00078005 0.00382394,0.0011729 0.00681978,0.0011729 0.00292236,0 0.00521164,-0.000381546 0.00687065,-0.00115877 0.00166467,-0.000768745 0.00248711,-0.00182294 0.00248711,-0.00315977 0,-0.00147531 -0.000941147,-0.00258886 -0.00280931,-0.00333217 -0.00186816,-0.000754613 -0.0046803,-0.00113051 -0.00843075,-0.00113051 -0.00212535,0 -0.00386916,0.000398504 -0.00522859,0.00117573 -0.0013453,0.000777223 -0.00202078,0.00176642 -0.00202078,0.00295062zm0.00371654 -0.0158893c-0.00235711,-0.000729177 -0.00415744,-0.00192751 -0.00538686,-0.00361197 -0.00124356,-0.00167315 -0.00185968,-0.00374763 -0.00185968,-0.00622344 0,-0.00380981 0.00131421,-0.00668977 0.00395112,-0.00864272 0.00261995,-0.00195012 0.00652302,-0.00292519 0.0117064,-0.00292519l0.0124864 0 0 0.00509859 -0.00531056 0c0.000862011,0.000927016 0.00150075,0.00191621 0.0019049,0.00293649 0.000406982,0.00103724 0.000616126,0.00219601 0.000616126,0.00345935 0,0.00263973 -0.000805486,0.00487814 -0.00240515,0.00673782 -0.00158836,0.00185968 -0.00375046,0.00303258 -0.00644389,0.00351022 -0.000593516,0.000115877 -0.00138487,0.000243059 -0.00238254,0.000406982 -0.00338022,0.000522859 -0.00507598,0.00138204 -0.00507598,0.00258886 0,0.00119268 0.00241646,0.00227514 0.00724937,0.0032276 0.00118421,0.000231754 0.00211405,0.000406982 0.002798,0.000545469 0.00304106,0.000638736 0.00534164,0.00169576 0.0069074,0.00319368 0.0015714,0.00150075 0.00234863,0.00340565 0.00234863,0.00571754 0,0.00320216 -0.00133682,0.00564123 -0.00399352,0.00731438 -0.00267365,0.00168163 -0.00655411,0.00252103 -0.0116244,0.00252103 -0.0049714,0 -0.00877273,-0.000813965 -0.0113955,-0.00242776 -0.00261147,-0.00162793 -0.00392568,-0.00398786 -0.00392568,-0.00706284 0,-0.00220449 0.000763092,-0.00401613 0.00229775,-0.00544622 0.00153749,-0.00142726 0.0037872,-0.00241928 0.0067463,-0.00296475 -0.00119268,-0.000545469 -0.00207448,-0.00112203 -0.00261995,-0.00175229 -0.000559601,-0.0006133 -0.000836575,-0.00131139 -0.000836575,-0.00208861 0,-0.000813965 0.000336326,-0.0015601 0.00102028,-0.00220731 0.000675478,-0.000661346 0.00175229,-0.00129726 0.0032276,-0.0019049zm0.00548578 -0.0160956c-0.00193034,0 -0.00351022,0.000553948 -0.00471704,0.00168446 -0.00122095,0.00112768 -0.00182294,0.00255495 -0.00182294,0.0042931 0,0.00183707 0.000579385,0.00327847 0.00172968,0.00431006 0.0011616,0.00103724 0.00276409,0.00154597 0.00481031,0.00154597 0.00205187,0 0.00368828,-0.000522859 0.00490075,-0.00156858 0.00119268,-0.00103159 0.00179751,-0.00245885 0.00179751,-0.00428745 0,-0.00173815 -0.000627431,-0.00316542 -0.00189643,-0.0042931 -0.00125204,-0.00113051 -0.0028517,-0.00168446 -0.00480183,-0.00168446zm0.0201513 0.0261317l0 -0.0314394 0.00625453 0 0 0.00682826c0.00174381,-0.00274148 0.00332652,-0.00465486 0.00471704,-0.00573732 0.00139335,-0.00109094 0.0029054,-0.00163641 0.00454181,-0.00163641 0.00113616,0 0.00228928,0.000243059 0.00344805,0.000743308 0.00117573,0.000500249 0.00241928,0.00127747 0.00372785,0.00232037l-0.00340283 0.00557905c-0.00102311,-0.000884622 -0.00199817,-0.00152336 -0.00292236,-0.00193034 -0.000929842,-0.000395677 -0.0019049,-0.00059069 -0.00292801,-0.00059069 -0.00169576,0 -0.0031852,0.000717872 -0.00446268,0.00214514 -0.00126617,0.00143009 -0.0021734,0.00341696 -0.00271887,0.0059606l0 0.0177574 -0.00625453 0zm0.0258462 -0.0406982c0,-0.000983541 0.000339152,-0.00183425 0.00102311,-0.00250407 0.000675478,-0.000689609 0.00152053,-0.00102311 0.00252103,-0.00102311 0.000989193,0 0.00183425,0.000333499 0.00250972,0.00102311 0.000683957,0.000669825 0.00102311,0.00152053 0.00102311,0.00250407 0,0.0010005 -0.000339152,0.00184555 -0.00102311,0.00252103 -0.000675478,0.000683957 -0.00152053,0.00102311 -0.00250972,0.00102311 -0.0010005,0 -0.00184555,-0.000339152 -0.00252103,-0.00102311 -0.000683957,-0.000675478 -0.00102311,-0.00152053 -0.00102311,-0.00252103zm0.000406982 0.0406982l0 -0.0314394 0.00626301 0 0 0.0314394 -0.00626301 0zm0.031869 -0.000986367c-0.000975062,0.000545469 -0.00202926,0.000946799 -0.00315694,0.00120682 -0.00111355,0.000262843 -0.00232319,0.000392851 -0.00362045,0.000392851 -0.00353283,0 -0.00603125,-0.000836575 -0.00746982,-0.00252103 -0.0014414,-0.00167315 -0.00216209,-0.00473682 -0.00216209,-0.00918537l0 -0.0149001 -0.00534164 0 0 -0.0006133 0.0109857 -0.0121473 0.000723524 0 0 0.00731438 0.00983541 0 0 0.00544622 -0.00983541 0 0 0.0144224c0,0.00260299 0.000322194,0.00428745 0.000975062,0.00505337 0.000638736,0.000754613 0.00184555,0.00113899 0.00362045,0.00113899 0.000952452,0 0.00188229,-0.000130008 0.00278953,-0.000370241 0.000904405,-0.000260017 0.00178903,-0.000638736 0.00265669,-0.0011616l0 0.00592386zm0.0133372 -0.00520598l-0.0132382 -0.025247 0.00697523 0 0.00969692 0.0184075 0.00904971 -0.0184075 0.00683957 0 -0.0233421 0.047258 -0.00684239 0 0.0108613 -0.022011z"/>
   <line id="_8574656" class="fil3 str0" x1="0.988894" y1="0.213448" x2="1.56706" y2= "0.213448" />
  </g>
 </g>
</svg>
